<?xml version="1.0" encoding="utf-8"?>
<!-- Generator: Adobe Illustrator 26.0.3, SVG Export Plug-In . SVG Version: 6.00 Build 0)  -->
<svg version="1.1" id="Layer_1" xmlns="http://www.w3.org/2000/svg" xmlns:xlink="http://www.w3.org/1999/xlink" x="0px" y="0px"
	 viewBox="0 0 512 512" style="enable-background:new 0 0 512 512;" xml:space="preserve">
<style type="text/css">
	.st0{fill:#D6DE23;}
	.st1{fill:#68BC45;}
	.st2{fill:#F3CC35;}
	.st3{fill:#FFFFFF;}
	.st4{fill:#009744;}
	.st5{fill:#00AE4D;}
	.st6{fill:#00873D;}
</style>
<g>
	<path class="st0" d="M81.3-40.3c-4.9,0-9.7-1.7-14.7-3.5c-6.9-2.4-13.9-5.1-21.6-3.4c2.6-0.3,5.2-0.2,7.9,0.4c4.9,1,9.5,3,13.8,5.2
		c8,4.1,13.6,5.6,17.4,5.8c1.8-1.7,3.3-3.7,4.5-5.9C86.1-40.7,83.7-40.3,81.3-40.3z"/>
	<path class="st1" d="M82.5-35.6c-5.6,0-10.9-2.5-16.3-5.1c-7.7-3.7-15.7-7.8-25.5-5.1c-0.3,0.1-0.6,0.3-0.9,0.4
		C43.6-35.2,53.5-28,65-28c7.3,0,13.9-2.9,18.8-7.6C83.4-35.6,82.9-35.6,82.5-35.6z"/>
	<path class="st2" d="M52.7-48.9c5.1,0.4,9.8,2.1,14.4,3.7c7.7,2.7,15.1,5.3,22.5,1.2C91.2-47.3,92-51.1,92-55c0-14.9-12.1-27-27-27
		c-14.9,0-27,12.1-27,27c0,3,0.5,5.8,1.4,8.5C43.6-48.5,48-49.3,52.7-48.9z"/>
	<g>
		<g>
			<g>
				<path class="st3" d="M64.5-53.5c0,0.1,0,0.2,0.1,0.3c0.1,0.1,0.1,0.2,0.2,0.2c0.2,0.1,0.4,0.1,0.6,0c0.2-0.1,0.4-0.2,0.5-0.4
					c0.1-0.1,0.2-0.2,0.3-0.2c0.1,0,0.1,0,0.1,0.1c0,0,0,0.1,0.1,0.1c0,0,0,0.1,0,0.2c0,0.1,0,0.1,0,0.2c0,0.1,0,0.2-0.1,0.3
					c-0.1,0.2-0.2,0.4-0.4,0.6c-0.1,0.1-0.2,0.2-0.3,0.3c-0.1,0.1-0.3,0.1-0.4,0.2c-0.2,0-0.3,0.1-0.5,0.1c-0.1,0-0.2,0-0.3,0
					c-0.1,0-0.2,0-0.3-0.1c-0.3-0.1-0.7-0.3-1-0.6c-0.3-0.3-0.4-0.7-0.4-1.2c0-0.4,0.2-0.9,0.4-1.2c0.2-0.3,0.6-0.6,0.9-0.7
					c0.1,0,0.2,0,0.3-0.1c0.1,0,0.2,0,0.3,0c0,0,0.1,0,0.1,0l0.1,0c0.1,0,0.2,0,0.2,0c0.1,0.1,0.3,0.1,0.4,0.2
					c0.1,0.1,0.2,0.1,0.3,0.2c0.4,0.4,0.5,0.8,0.4,1c0,0.3-0.1,0.4-0.2,0.4c-0.1,0-0.2-0.1-0.3-0.2c-0.1-0.1-0.3-0.3-0.5-0.3
					c-0.1,0-0.2,0-0.3-0.1c0,0-0.1,0-0.1,0l0,0l0,0c0,0-0.1,0-0.1,0c0,0,0,0-0.1,0C64.6-54,64.5-53.8,64.5-53.5z"/>
			</g>
			<g>
				<path class="st3" d="M45.6-67.5c-0.3-1-0.2-2.5,0.2-3.5c2.1-4.6,8.6-4.3,12.5-2.7c1.5,0.6,3,1.4,4.5,2.2
					c3.7,1.9,9.6,5.1,13.4,1.6c0.4-0.4,0.7-0.7,0.8-1c0.1-0.3,0.2-0.4,0.1-0.5c-0.1-0.1-0.2,0-0.5,0.1c-0.2,0.1-0.6,0.3-1,0.5
					c-0.9,0.4-2.1,0.7-3.7,0.4c-3-0.6-5.7-2.3-8.3-3.8c-2.6-1.5-5.3-2.9-8.4-3.3c-2.7-0.3-6.1,0.3-8.3,2.1
					C44.4-73.2,42.7-69.7,45.6-67.5z"/>
				<path class="st3" d="M86.7-65.5c0-0.7-6.4-1.2-14.3-1.2c-0.9,0-1.8,0-2.6,0c-0.1-0.2-0.2-0.3-0.3-0.3c-0.1,0-0.2,0.1-0.4,0.3
					c-4.9,0.1-8.9,0.4-10.3,0.8c-0.2-0.7-0.4-1.1-0.7-1.1c-0.3,0-0.6,0.8-0.9,2c-0.3-0.3-0.7-0.7-1.2-1c-1.1-0.6-2.7-0.9-4.3-0.3
					c-0.8,0.3-1.6,0.8-2.2,1.5c-0.6,0.7-1.1,1.6-1.3,2.5c0,0.1,0,0.1,0,0.2l0,0.2c0,0.2,0,0.3-0.1,0.5c0,0.2,0,0.4,0,0.6
					c0,0.2,0,0.4,0,0.5c0,0.4,0.2,0.6,0.4,0.9c0.1,0.1,0.2,0.2,0.3,0.3c0.1,0.1,0.3,0.2,0.4,0.2c0.3,0.1,0.6,0.1,0.9,0.1
					c0.3,0,0.7-0.2,1-0.3c0.2-0.1,0.4-0.2,0.6-0.2c0.1-0.1,0.3-0.1,0.4-0.1c0.2-0.1,0.4-0.1,0.6-0.1c0.2,0,0.3,0,0.4,0.1
					c0.3,0.2,0.5,0.3,0.5,0.6c0.1,0.3,0,0.6-0.1,0.9c-0.1,0.1-0.1,0.3-0.2,0.4l-0.1,0.1l-0.1,0.1c0,0.1-0.1,0.1-0.1,0.2
					c-0.3,0.5-0.4,0.9-0.3,1c0.1,0.1,0.5,0,1-0.3c0.1,0,0.1-0.1,0.2-0.1l0.1-0.1l0.1-0.1c0.2-0.1,0.3-0.3,0.5-0.5
					c0.3-0.4,0.6-1,0.6-1.7c0-0.4-0.1-0.8-0.3-1.2c-0.2-0.4-0.5-0.7-0.8-1c-0.3-0.3-0.8-0.5-1.3-0.6c-0.5-0.1-1-0.1-1.4,0
					c-0.2,0-0.4,0.1-0.6,0.1l-0.3,0.1l-0.1,0c0,0,0,0,0,0c0,0,0,0-0.1,0c0,0,0,0,0,0c0,0,0,0,0,0l0-0.1l0-0.1l0-0.1
					c0.3-1.1,1.1-2,2-2.5c0.9-0.4,2-0.4,2.8-0.2c0.7,0.2,1.3,0.6,1.7,0.9c-0.1,1-0.2,2.2-0.2,3.5c0,3.9,0.5,7.1,1.2,7.1
					c0.7,0,1.2-3.2,1.2-7.1c0-2-0.1-3.9-0.4-5.2c1.5,0.4,5.1,0.7,9.6,0.8c0,0.2-0.1,0.4-0.1,0.7c-0.4,0-0.9,0.1-1.4,0.2
					c-0.8,0.2-1.7,0.5-2.6,0.9c-0.2,0.1-0.5,0.3-0.7,0.4l0,0l-0.1,0L63.5-62l-0.3,0.2c-0.2,0.1-0.4,0.3-0.6,0.4
					c-0.4,0.3-0.8,0.6-1.2,1c-0.2,0.2-0.4,0.3-0.6,0.5c-0.2,0.2-0.4,0.3-0.6,0.5c0.5,0.2,1,0.4,1.4,0.5c0.6,0.2,1.2,0.5,1.8,0.7
					c0.2,0.1,0.4,0.2,0.6,0.3c0.1,0.1,0.3,0.1,0.4,0.2c0.5,0.2,1,0.5,1.4,0.7c0.9,0.5,1.6,1,2.1,1.5c0.4,0.3,0.7,0.6,0.9,0.9
					c0.2,1,0.5,1.6,0.8,1.6c0.7,0,1.2-3.2,1.2-7.1c0-1.6-0.1-3.2-0.3-4.3c0.7,0,1.3,0,2,0c2.3,0,4.4,0,6.3-0.1
					c-0.2,0.2-0.4,0.6-0.5,1.1c0,0.2,0,0.3,0,0.5c-0.1,0-0.1,0-0.2,0.1c-0.4,0.1-0.7,0.2-1,0.2c0,0-0.1,0-0.1,0c0,0,0,0-0.1,0
					c0,0-0.1,0-0.2,0c-0.2-0.1-0.4-0.2-0.6-0.3c-0.4-0.2-0.7-0.4-1.1-0.3c-0.3,0.1-0.6,0.5-0.4,1.2c0.1,0.3,0.3,0.7,0.6,1.1
					c0.2,0.2,0.4,0.4,0.7,0.5c0.1,0.1,0.3,0.1,0.5,0.2c0.2,0,0.3,0.1,0.5,0.1c0.6,0,1.3-0.2,1.7-0.5c0.1-0.1,0.2-0.2,0.3-0.2
					c0.2,0.3,0.4,0.5,0.7,0.7c-0.1,0.1-0.1,0.1-0.2,0.2c-0.2,0.2-0.4,0.5-0.5,0.7c-0.3,0.5-0.3,1.1-0.2,1.6c0.1,0.5,0.4,1,0.7,1.3
					l0.1,0.1l0.1,0.1l0.1,0.1c0.1,0,0.1,0.1,0.2,0.1c0.1,0,0.1,0.1,0.2,0.1c0.7,0.3,1.9,0.1,2.2-0.7c0,0,0-0.1,0-0.1
					c0-0.1,0-0.2,0-0.3c0-0.2-0.1-0.3-0.1-0.3c-0.1-0.1-0.2-0.2-0.3-0.3c-0.1-0.1-0.2-0.1-0.2-0.2c-0.1-0.1-0.3-0.1-0.4-0.2
					c-0.2-0.1-0.3-0.1-0.4,0c-0.1,0.1,0,0.2,0.1,0.4c0.1,0.1,0.3,0.3,0.2,0.4c-0.1,0.2-0.3,0.1-0.4,0c-0.4-0.2-0.5-0.9-0.2-1.2
					c0.1-0.1,0.1-0.1,0.2-0.2c0.1-0.1,0.2-0.1,0.3-0.2c0.4-0.2,1-0.2,1.4,0.1c0.1,0.1,0.2,0.1,0.3,0.3c0.1,0.1,0.2,0.3,0.3,0.4
					c0.2,0.3,0.3,0.6,0.3,0.9c0.1,0.7-0.1,1.4-0.6,1.9c-0.1,0.1-0.3,0.3-0.4,0.4c-0.2,0.1-0.3,0.2-0.5,0.3c-0.3,0.2-0.7,0.4-1.1,0.5
					c-0.7,0.2-1.5,0.2-2.2,0c-0.7-0.2-1.3-0.5-1.8-1c-0.5-0.5-1-1-1.3-1.5c-0.7-1-1-2-1.2-2.7c-0.2-0.7-0.3-1.1-0.4-1.2
					c-0.2,0-0.4,0.4-0.5,1.2c-0.1,0.8,0,2.1,0.6,3.5c0.3,0.7,0.8,1.4,1.4,2.1c0.6,0.7,1.5,1.3,2.6,1.7c1,0.3,2.3,0.4,3.4,0.1
					c0.6-0.1,1.2-0.4,1.7-0.7c0.3-0.2,0.5-0.3,0.8-0.5c0.2-0.2,0.5-0.4,0.7-0.7c0.9-1.1,1.3-2.5,1.1-3.8c-0.1-0.7-0.4-1.3-0.7-1.8
					c-0.2-0.3-0.4-0.5-0.6-0.7c-0.2-0.2-0.4-0.4-0.6-0.5c0.1-0.1,0.3-0.2,0.4-0.4c0.6-0.7,0.8-1.6,0.7-2.3c-0.1-0.7-0.4-1.1-0.6-1.4
					c-0.3-0.2-0.5-0.3-0.6-0.2c-0.1,0.1-0.2,0.3-0.2,0.6c0,0.3-0.1,0.6-0.2,0.9C83-62.6,82.4-62,81.6-62c-0.4,0-0.7-0.2-1-0.4
					c-0.3-0.2-0.5-0.5-0.6-0.9c-0.1-0.3-0.1-0.6-0.2-0.9c0-0.1,0-0.2,0-0.2C84-64.6,86.7-65,86.7-65.5z M67-58.7
					c-0.5-0.3-1-0.7-1.5-1c-0.1-0.1-0.3-0.2-0.4-0.2L65-60l0,0l0,0c0,0,0,0,0,0c0,0,0,0,0,0c0,0,0,0,0-0.1l0,0l0,0l0,0c0,0,0,0,0,0
					l0,0c0.2-0.1,0.4-0.3,0.6-0.4c0.8-0.5,1.5-0.9,2.1-1.3c0.3-0.1,0.5-0.3,0.7-0.4c0,0.7-0.1,1.5-0.1,2.4c0,0.8,0,1.6,0.1,2.4
					C68-57.9,67.5-58.4,67-58.7z"/>
				<path class="st3" d="M47.2-65.5c0-0.7-0.6-1.2-1.4-1.2c-0.8,0-1.4,0.5-1.4,1.2c0,0.5,0.4,1,1,1.2c-0.4,1-0.8,3.3-0.8,6
					c0,3.6,0.5,6.5,1.2,6.5c0.7,0,1.2-2.9,1.2-6.5c0-2.7-0.3-5-0.8-6C46.8-64.5,47.2-64.9,47.2-65.5z"/>
			</g>
		</g>
		<g>
			<path class="st3" d="M89.3-53.3l-2.3-3c-0.1,1.3-0.6,2.5-1.4,3.5L89.3-53.3z"/>
			<path class="st3" d="M86.5-59.7c0.3,0.8,0.5,1.6,0.5,2.5l2.5-2.8l-3.7-0.8C86.1-60.5,86.3-60.2,86.5-59.7z"/>
			<path class="st3" d="M73.7-54.3c-0.3-0.8-0.5-1.6-0.5-2.5l-2.6,2.8l3.7,0.8C74.1-53.5,73.8-53.9,73.7-54.3z"/>
			<path class="st3" d="M82.8-50.6c-0.2,0.1-0.4,0.2-0.7,0.2l3.4,1.7l-0.2-3.8C84.6-51.7,83.8-51,82.8-50.6z"/>
			<path class="st3" d="M77.9-50.4l1.8,3.4l2-3.2C80.5-49.9,79.1-50,77.9-50.4z"/>
			<path class="st3" d="M74.5-52.8L74.1-49l3.5-1.5C76.4-51,75.3-51.8,74.5-52.8z"/>
		</g>
	</g>
	<path class="st4" d="M65.7-34.3c-6.5-2.6-13.3-5.6-20.9-4.7c1.5,1.9,3.3,3.6,5.4,5.1c0.1,0.1,0.2,0.2,0.3,0.2
		c5.3,0.3,10.3,2,15.2,3.6c0.7,0.2,1.4,0.5,2.2,0.7c2.3-0.3,4.6-0.8,6.8-1.7C71.7-31.9,68.7-33.1,65.7-34.3z"/>
	<path class="st5" d="M65.7-34.3c3,1.2,6,2.4,8.9,3.2c1.7-0.7,3.2-1.5,4.7-2.5c-4.6-0.6-9-2.5-13.5-4.6c-7.3-3.3-14.9-7-23.8-5
		c0.8,1.5,1.7,2.9,2.7,4.2C52.4-39.9,59.2-36.9,65.7-34.3z"/>
	<path class="st6" d="M50.5-33.6c4.3,2.9,9.3,4.4,14.5,4.4c1,0,1.9-0.1,2.9-0.2c-0.7-0.2-1.4-0.5-2.2-0.7
		C60.9-31.6,55.8-33.4,50.5-33.6z"/>
</g>
<g>
	<path class="st0" d="M118.6-130.4c-6.1,0-12.2-2.1-18.5-4.4c-8.6-3-17.5-6.4-27.2-4.3c3.2-0.4,6.5-0.2,9.9,0.5
		c6.2,1.2,11.9,3.7,17.3,6.5c10.1,5.2,17.1,7,21.9,7.3c2.2-2.2,4.1-4.7,5.7-7.4C124.6-131,121.6-130.4,118.6-130.4z"/>
	<path class="st1" d="M120-124.6c-7.1,0-13.7-3.2-20.5-6.4c-9.7-4.6-19.8-9.9-32.1-6.4c-0.4,0.2-0.8,0.3-1.1,0.5
		C71.1-124.1,83.5-115,98-115c9.2,0,17.6-3.7,23.7-9.6C121.1-124.6,120.6-124.6,120-124.6z"/>
	<path class="st2" d="M82.5-141.3c6.4,0.5,12.4,2.6,18.2,4.7c9.7,3.4,19,6.7,28.3,1.5c1.9-4.3,3-9,3-13.9c0-18.8-15.2-34-34-34
		c-18.8,0-34,15.2-34,34c0,3.7,0.6,7.3,1.7,10.7C71.1-140.8,76.6-141.8,82.5-141.3z"/>
	<g>
		<g>
			<g>
				<path class="st3" d="M97.4-147.1c0,0.1,0,0.3,0.1,0.4c0.1,0.1,0.2,0.2,0.3,0.3c0.2,0.1,0.6,0.2,0.8,0c0.3-0.1,0.5-0.3,0.6-0.4
					c0.2-0.2,0.3-0.3,0.4-0.3c0.1,0,0.1,0,0.2,0.1c0,0,0.1,0.1,0.1,0.1c0,0.1,0,0.1,0,0.2c0,0.1,0,0.2,0,0.3c0,0.1,0,0.2-0.1,0.3
					c-0.1,0.2-0.2,0.5-0.4,0.7c-0.1,0.1-0.3,0.2-0.4,0.3c-0.2,0.1-0.3,0.2-0.5,0.2c-0.2,0-0.4,0.1-0.6,0.1c-0.1,0-0.2,0-0.3,0
					c-0.1,0-0.2,0-0.3-0.1c-0.4-0.1-0.9-0.4-1.2-0.8c-0.3-0.4-0.5-0.9-0.5-1.5c0-0.6,0.2-1.1,0.5-1.5c0.3-0.4,0.7-0.7,1.2-0.8
					c0.1,0,0.2-0.1,0.3-0.1c0.1,0,0.2,0,0.3,0c0.1,0,0.1,0,0.2,0l0.2,0c0.1,0,0.2,0,0.3,0.1c0.2,0.1,0.4,0.1,0.5,0.2
					c0.2,0.1,0.3,0.2,0.4,0.3c0.5,0.5,0.6,1,0.5,1.3c0,0.3-0.2,0.5-0.3,0.5c-0.1,0-0.3-0.1-0.4-0.3c-0.2-0.2-0.4-0.3-0.6-0.4
					c-0.1-0.1-0.3-0.1-0.4-0.1c0,0-0.1,0-0.1,0l-0.1,0l-0.1,0c0,0-0.1,0-0.1,0c0,0-0.1,0-0.1,0.1C97.5-147.7,97.4-147.4,97.4-147.1z
					"/>
			</g>
			<g>
				<path class="st3" d="M73.5-164.7c-0.4-1.3-0.3-3.1,0.3-4.3c2.6-5.8,10.9-5.5,15.7-3.4c1.9,0.8,3.8,1.8,5.6,2.8
					c4.7,2.4,12.1,6.4,16.9,2.1c0.5-0.5,0.8-0.9,1-1.2c0.2-0.3,0.2-0.5,0.1-0.6c-0.1-0.1-0.3,0-0.6,0.1c-0.3,0.1-0.7,0.4-1.3,0.6
					c-1.1,0.5-2.7,0.9-4.7,0.5c-3.8-0.7-7.1-2.9-10.5-4.8c-3.3-1.9-6.7-3.7-10.6-4.1c-3.5-0.4-7.7,0.4-10.5,2.7
					C72-172,69.9-167.6,73.5-164.7z"/>
				<path class="st3" d="M125.4-162.2c0-0.8-8-1.5-17.9-1.5c-1.1,0-2.2,0-3.3,0c-0.1-0.2-0.3-0.4-0.4-0.4c-0.2,0-0.3,0.1-0.4,0.4
					c-6.2,0.1-11.2,0.5-13,1c-0.2-0.9-0.5-1.4-0.8-1.4c-0.4,0-0.8,1-1.1,2.6c-0.4-0.4-0.9-0.9-1.6-1.2c-1.4-0.7-3.4-1.1-5.4-0.4
					c-1,0.4-2,1-2.8,1.9c-0.8,0.9-1.4,2-1.7,3.2c0,0.1,0,0.1-0.1,0.2l0,0.3c0,0.2-0.1,0.4-0.1,0.6c0,0.2,0,0.5,0,0.7
					c0,0.2,0,0.5,0,0.7c0.1,0.4,0.2,0.8,0.4,1.1c0.1,0.2,0.3,0.3,0.4,0.4c0.2,0.1,0.3,0.2,0.5,0.3c0.4,0.1,0.7,0.2,1.1,0.1
					c0.4,0,0.8-0.2,1.2-0.3c0.3-0.1,0.5-0.2,0.8-0.3c0.2-0.1,0.3-0.1,0.5-0.2c0.3-0.1,0.5-0.1,0.7-0.1c0.2,0,0.4,0.1,0.5,0.1
					c0.4,0.2,0.6,0.4,0.7,0.8c0.1,0.4,0,0.8-0.1,1.2c-0.1,0.2-0.1,0.4-0.2,0.5l-0.1,0.1l-0.1,0.1c-0.1,0.1-0.1,0.2-0.2,0.3
					c-0.4,0.6-0.5,1.1-0.4,1.2c0.2,0.1,0.6,0,1.2-0.4c0.1-0.1,0.2-0.1,0.2-0.2l0.1-0.1l0.2-0.1c0.2-0.2,0.4-0.4,0.6-0.6
					c0.4-0.5,0.8-1.2,0.8-2.2c0-0.5-0.1-1-0.3-1.5c-0.2-0.5-0.6-0.9-1-1.3c-0.4-0.3-1-0.6-1.6-0.7c-0.6-0.1-1.2-0.1-1.8,0
					c-0.3,0.1-0.5,0.1-0.8,0.2l-0.3,0.1l-0.1,0c0,0,0,0,0,0c0,0-0.1,0-0.1,0c0,0,0,0,0-0.1c0,0,0,0,0,0l0-0.2l0-0.1l0-0.1
					c0.3-1.4,1.4-2.6,2.5-3.1c1.2-0.6,2.5-0.6,3.5-0.3c0.9,0.3,1.6,0.7,2.2,1.1c-0.1,1.3-0.2,2.8-0.2,4.4c0,4.9,0.7,8.9,1.5,8.9
					c0.8,0,1.5-4,1.5-8.9c0-2.6-0.2-4.9-0.5-6.5c1.9,0.5,6.4,0.8,12,1c0,0.3-0.1,0.5-0.1,0.8c-0.5,0-1.1,0.1-1.8,0.2
					c-1,0.2-2.1,0.6-3.3,1.2c-0.3,0.1-0.6,0.3-0.9,0.5l-0.1,0l-0.1,0.1l-0.2,0.1l-0.4,0.3c-0.3,0.2-0.5,0.4-0.8,0.5
					c-0.5,0.4-1,0.8-1.5,1.2c-0.3,0.2-0.5,0.4-0.8,0.7c-0.3,0.2-0.5,0.4-0.8,0.7c0.6,0.2,1.2,0.4,1.8,0.7c0.8,0.3,1.5,0.6,2.2,0.9
					c0.3,0.1,0.5,0.3,0.8,0.4c0.2,0.1,0.3,0.2,0.5,0.2c0.6,0.3,1.2,0.6,1.8,0.9c1.1,0.6,2,1.3,2.7,1.8c0.5,0.4,0.8,0.8,1.1,1.2
					c0.3,1.3,0.6,2,1,2c0.8,0,1.5-4,1.5-8.9c0-2.1-0.1-4-0.3-5.5c0.8,0,1.7,0,2.5,0c2.9,0,5.6-0.1,8-0.2c-0.3,0.3-0.5,0.8-0.6,1.3
					c0,0.2-0.1,0.4-0.1,0.6c-0.1,0-0.1,0.1-0.2,0.1c-0.5,0.2-0.9,0.2-1.3,0.2c-0.1,0-0.1,0-0.2,0c0,0,0,0-0.1,0
					c-0.1,0-0.2,0-0.3-0.1c-0.2-0.1-0.5-0.2-0.7-0.3c-0.5-0.3-0.9-0.5-1.3-0.4c-0.4,0.1-0.7,0.7-0.5,1.6c0.1,0.4,0.3,0.9,0.8,1.4
					c0.2,0.2,0.5,0.5,0.9,0.6c0.2,0.1,0.4,0.2,0.6,0.2c0.2,0,0.4,0.1,0.6,0.1c0.8,0,1.6-0.2,2.1-0.6c0.1-0.1,0.3-0.2,0.4-0.3
					c0.3,0.3,0.6,0.6,0.9,0.9c-0.1,0.1-0.2,0.1-0.2,0.2c-0.2,0.2-0.5,0.6-0.7,0.9c-0.3,0.7-0.4,1.4-0.3,2c0.1,0.6,0.4,1.2,0.8,1.6
					l0.1,0.1l0.1,0.1l0.1,0.1c0.1,0.1,0.2,0.1,0.2,0.2c0.1,0,0.1,0.1,0.2,0.1c0.9,0.4,2.3,0.2,2.8-0.8c0-0.1,0-0.1,0.1-0.2
					c0-0.1,0-0.2,0-0.3c0-0.2-0.1-0.3-0.1-0.4c-0.1-0.2-0.2-0.3-0.3-0.4c-0.1-0.1-0.2-0.1-0.3-0.2c-0.2-0.1-0.3-0.2-0.5-0.2
					c-0.3-0.1-0.4-0.1-0.5,0c-0.1,0.1-0.1,0.3,0.1,0.5c0.1,0.1,0.3,0.3,0.3,0.5c-0.1,0.2-0.3,0.1-0.5,0c-0.5-0.3-0.6-1.1-0.2-1.5
					c0.1-0.1,0.1-0.1,0.2-0.2c0.1-0.1,0.2-0.2,0.4-0.2c0.5-0.2,1.2-0.2,1.8,0.2c0.1,0.1,0.2,0.2,0.4,0.3c0.1,0.2,0.2,0.3,0.3,0.5
					c0.2,0.3,0.3,0.7,0.4,1.2c0.1,0.8-0.1,1.7-0.7,2.4c-0.1,0.2-0.3,0.3-0.5,0.5c-0.2,0.2-0.4,0.3-0.6,0.4c-0.4,0.3-0.9,0.5-1.3,0.6
					c-0.9,0.3-1.9,0.3-2.8,0c-0.9-0.2-1.6-0.7-2.3-1.2c-0.7-0.6-1.2-1.2-1.6-1.9c-0.8-1.3-1.2-2.6-1.5-3.4c-0.2-0.9-0.3-1.4-0.6-1.5
					c-0.2,0-0.5,0.5-0.6,1.5c-0.1,1-0.1,2.6,0.7,4.4c0.4,0.9,1,1.8,1.7,2.7c0.8,0.9,1.9,1.7,3.3,2.1c1.3,0.4,2.8,0.5,4.3,0.2
					c0.7-0.2,1.5-0.5,2.2-0.9c0.3-0.2,0.7-0.4,1-0.7c0.3-0.3,0.6-0.5,0.9-0.9c1.2-1.4,1.6-3.2,1.3-4.8c-0.1-0.8-0.4-1.6-0.9-2.3
					c-0.2-0.3-0.5-0.6-0.7-0.9c-0.2-0.2-0.5-0.4-0.8-0.6c0.2-0.2,0.3-0.3,0.5-0.5c0.7-0.9,1-2,0.9-2.9c-0.1-0.8-0.5-1.4-0.8-1.7
					c-0.4-0.3-0.6-0.3-0.8-0.2c-0.2,0.1-0.2,0.4-0.3,0.7c-0.1,0.3-0.1,0.7-0.3,1.1c-0.3,0.8-1.1,1.5-2,1.5c-0.5,0-0.9-0.2-1.2-0.5
					c-0.3-0.3-0.6-0.7-0.7-1.1c-0.1-0.4-0.2-0.8-0.2-1.1c0-0.1,0-0.2,0-0.3C121.9-161.1,125.4-161.6,125.4-162.2z M100.5-153.7
					c-0.6-0.4-1.2-0.8-1.9-1.2c-0.2-0.1-0.3-0.2-0.5-0.3l-0.1-0.1l0,0l0,0c0,0,0,0,0,0c0,0,0,0,0,0c0,0,0,0,0-0.1l0-0.1l0,0l0,0
					c0,0,0,0,0,0l0,0c0.3-0.2,0.5-0.3,0.7-0.5c1-0.6,1.9-1.2,2.7-1.6c0.3-0.2,0.6-0.3,0.9-0.5c-0.1,0.9-0.1,1.9-0.1,3
					c0,1.1,0,2.1,0.1,3C101.8-152.7,101.2-153.2,100.5-153.7z"/>
				<path class="st3" d="M75.6-162.2c0-0.8-0.8-1.5-1.8-1.5c-1,0-1.8,0.7-1.8,1.5c0,0.7,0.5,1.2,1.2,1.5c-0.6,1.2-0.9,4.2-0.9,7.6
					c0,4.5,0.7,8.2,1.5,8.2c0.8,0,1.5-3.7,1.5-8.2c0-3.4-0.4-6.3-0.9-7.6C75.1-160.9,75.6-161.5,75.6-162.2z"/>
			</g>
		</g>
		<g>
			<path class="st3" d="M128.7-146.8l-2.9-3.8c-0.2,1.6-0.8,3.1-1.8,4.4L128.7-146.8z"/>
			<path class="st3" d="M125.1-155c0.4,1,0.6,2.1,0.7,3.1l3.2-3.6l-4.7-1C124.6-156,124.9-155.5,125.1-155z"/>
			<path class="st3" d="M108.9-148.1c-0.4-1-0.6-2.1-0.7-3.1l-3.2,3.6l4.7,1C109.4-147.1,109.1-147.6,108.9-148.1z"/>
			<path class="st3" d="M120.4-143.5c-0.3,0.1-0.6,0.2-0.9,0.3l4.3,2.2l-0.2-4.8C122.7-144.8,121.7-144,120.4-143.5z"/>
			<path class="st3" d="M114.3-143.2l2.3,4.2l2.5-4.1C117.5-142.6,115.8-142.7,114.3-143.2z"/>
			<path class="st3" d="M110-146.3l-0.6,4.8l4.4-1.9C112.3-143.9,111-144.9,110-146.3z"/>
		</g>
	</g>
	<path class="st4" d="M98.9-122.9c-8.2-3.3-16.8-7.1-26.4-5.9c1.9,2.4,4.2,4.6,6.8,6.4c0.1,0.1,0.3,0.2,0.4,0.3
		c6.6,0.3,13,2.5,19.1,4.5c0.9,0.3,1.8,0.6,2.7,0.9c2.9-0.3,5.8-1.1,8.5-2.2C106.4-119.9,102.7-121.4,98.9-122.9z"/>
	<path class="st5" d="M98.9-122.9c3.8,1.5,7.5,3,11.3,4c2.1-0.8,4.1-1.9,5.9-3.2c-5.7-0.7-11.3-3.2-17.1-5.8
		c-9.2-4.1-18.7-8.8-29.9-6.3c1,1.9,2.1,3.7,3.4,5.3C82.1-130,90.7-126.2,98.9-122.9z"/>
	<path class="st6" d="M79.8-122.1c5.4,3.7,11.7,5.6,18.2,5.6c1.2,0,2.4-0.1,3.6-0.2c-0.9-0.3-1.8-0.6-2.7-0.9
		C92.8-119.6,86.4-121.8,79.8-122.1z"/>
</g>
<g>
	<path class="st0" d="M1082.8,347.4c-1.4,0-2.9-0.5-4.4-1c-2-0.7-4.1-1.5-6.4-1c0.8-0.1,1.5,0,2.3,0.1c1.5,0.3,2.8,0.9,4.1,1.5
		c2.4,1.2,4,1.6,5.1,1.7c0.5-0.5,1-1.1,1.3-1.7C1084.2,347.2,1083.5,347.4,1082.8,347.4z"/>
	<path class="st1" d="M1083.2,348.8c-1.7,0-3.2-0.7-4.8-1.5c-2.3-1.1-4.7-2.3-7.6-1.5c-0.1,0-0.2,0.1-0.3,0.1c1.1,3,4.1,5.1,7.5,5.1
		c2.2,0,4.1-0.9,5.6-2.3C1083.4,348.7,1083.3,348.8,1083.2,348.8z"/>
	<path class="st2" d="M1074.4,344.8c1.5,0.1,2.9,0.6,4.3,1.1c2.3,0.8,4.5,1.6,6.7,0.4c0.4-1,0.7-2.1,0.7-3.3c0-4.4-3.6-8-8-8
		s-8,3.6-8,8c0,0.9,0.1,1.7,0.4,2.5C1071.7,344.9,1073,344.7,1074.4,344.8z"/>
	<g>
		<g>
			<g>
				<path class="st3" d="M1077.8,343.4C1077.9,343.5,1077.9,343.5,1077.8,343.4c0,0.1,0.1,0.1,0.1,0.2c0.1,0,0.1,0,0.2,0
					c0.1,0,0.1-0.1,0.1-0.1c0,0,0.1-0.1,0.1-0.1c0,0,0,0,0,0c0,0,0,0,0,0c0,0,0,0,0,0.1c0,0,0,0,0,0.1c0,0,0,0,0,0.1
					c0,0.1-0.1,0.1-0.1,0.2c0,0-0.1,0-0.1,0.1c0,0-0.1,0-0.1,0.1c0,0-0.1,0-0.1,0c0,0-0.1,0-0.1,0c0,0-0.1,0-0.1,0
					c-0.1,0-0.2-0.1-0.3-0.2c-0.1-0.1-0.1-0.2-0.1-0.4c0-0.1,0-0.3,0.1-0.4c0.1-0.1,0.2-0.2,0.3-0.2c0,0,0.1,0,0.1,0
					c0,0,0.1,0,0.1,0c0,0,0,0,0,0l0,0c0,0,0,0,0.1,0c0,0,0.1,0,0.1,0.1c0,0,0.1,0,0.1,0.1c0.1,0.1,0.1,0.2,0.1,0.3
					c0,0.1,0,0.1-0.1,0.1c0,0-0.1,0-0.1-0.1c0,0-0.1-0.1-0.1-0.1c0,0-0.1,0-0.1,0c0,0,0,0,0,0l0,0l0,0c0,0,0,0,0,0c0,0,0,0,0,0
					C1077.9,343.3,1077.8,343.4,1077.8,343.4z"/>
			</g>
			<g>
				<path class="st3" d="M1072.2,339.3c-0.1-0.3-0.1-0.7,0.1-1c0.6-1.4,2.6-1.3,3.7-0.8c0.5,0.2,0.9,0.4,1.3,0.6
					c1.1,0.6,2.8,1.5,4,0.5c0.1-0.1,0.2-0.2,0.2-0.3c0-0.1,0.1-0.1,0-0.1c0,0-0.1,0-0.1,0c-0.1,0-0.2,0.1-0.3,0.1
					c-0.3,0.1-0.6,0.2-1.1,0.1c-0.9-0.2-1.7-0.7-2.5-1.1c-0.8-0.4-1.6-0.9-2.5-1c-0.8-0.1-1.8,0.1-2.5,0.6
					C1071.9,337.6,1071.4,338.6,1072.2,339.3z"/>
				<path class="st3" d="M1084.4,339.9c0-0.2-1.9-0.4-4.2-0.4c-0.3,0-0.5,0-0.8,0c0-0.1-0.1-0.1-0.1-0.1c0,0-0.1,0-0.1,0.1
					c-1.5,0-2.6,0.1-3.1,0.2c-0.1-0.2-0.1-0.3-0.2-0.3c-0.1,0-0.2,0.2-0.3,0.6c-0.1-0.1-0.2-0.2-0.4-0.3c-0.3-0.2-0.8-0.3-1.3-0.1
					c-0.2,0.1-0.5,0.2-0.7,0.4c-0.2,0.2-0.3,0.5-0.4,0.8c0,0,0,0,0,0.1l0,0.1c0,0,0,0.1,0,0.1c0,0.1,0,0.1,0,0.2c0,0.1,0,0.1,0,0.2
					c0,0.1,0.1,0.2,0.1,0.3c0,0,0.1,0.1,0.1,0.1c0,0,0.1,0.1,0.1,0.1c0.1,0,0.2,0,0.3,0c0.1,0,0.2,0,0.3-0.1c0.1,0,0.1,0,0.2-0.1
					c0,0,0.1,0,0.1,0c0.1,0,0.1,0,0.2,0c0,0,0.1,0,0.1,0c0.1,0.1,0.1,0.1,0.2,0.2c0,0.1,0,0.2,0,0.3c0,0,0,0.1-0.1,0.1l0,0l0,0
					c0,0,0,0,0,0.1c-0.1,0.2-0.1,0.3-0.1,0.3c0,0,0.1,0,0.3-0.1c0,0,0,0,0.1,0l0,0l0,0c0,0,0.1-0.1,0.1-0.1c0.1-0.1,0.2-0.3,0.2-0.5
					c0-0.1,0-0.2-0.1-0.4c-0.1-0.1-0.1-0.2-0.2-0.3c-0.1-0.1-0.2-0.1-0.4-0.2c-0.1,0-0.3,0-0.4,0c-0.1,0-0.1,0-0.2,0l-0.1,0l0,0
					c0,0,0,0,0,0c0,0,0,0,0,0c0,0,0,0,0,0c0,0,0,0,0,0l0,0l0,0l0,0c0.1-0.3,0.3-0.6,0.6-0.7c0.3-0.1,0.6-0.1,0.8-0.1
					c0.2,0.1,0.4,0.2,0.5,0.3c0,0.3,0,0.7,0,1c0,1.2,0.2,2.1,0.4,2.1s0.4-0.9,0.4-2.1c0-0.6,0-1.1-0.1-1.5c0.4,0.1,1.5,0.2,2.8,0.2
					c0,0.1,0,0.1,0,0.2c-0.1,0-0.3,0-0.4,0.1c-0.2,0.1-0.5,0.1-0.8,0.3c-0.1,0-0.1,0.1-0.2,0.1l0,0l0,0l0,0l-0.1,0.1
					c-0.1,0-0.1,0.1-0.2,0.1c-0.1,0.1-0.2,0.2-0.4,0.3c-0.1,0.1-0.1,0.1-0.2,0.2c-0.1,0.1-0.1,0.1-0.2,0.2c0.1,0.1,0.3,0.1,0.4,0.2
					c0.2,0.1,0.4,0.1,0.5,0.2c0.1,0,0.1,0.1,0.2,0.1c0,0,0.1,0,0.1,0.1c0.1,0.1,0.3,0.1,0.4,0.2c0.3,0.1,0.5,0.3,0.6,0.4
					c0.1,0.1,0.2,0.2,0.3,0.3c0.1,0.3,0.1,0.5,0.2,0.5c0.2,0,0.4-0.9,0.4-2.1c0-0.5,0-0.9-0.1-1.3c0.2,0,0.4,0,0.6,0
					c0.7,0,1.3,0,1.9,0c-0.1,0.1-0.1,0.2-0.1,0.3c0,0,0,0.1,0,0.1c0,0,0,0-0.1,0c-0.1,0-0.2,0.1-0.3,0c0,0,0,0,0,0c0,0,0,0,0,0
					c0,0,0,0-0.1,0c-0.1,0-0.1-0.1-0.2-0.1c-0.1-0.1-0.2-0.1-0.3-0.1c-0.1,0-0.2,0.2-0.1,0.4c0,0.1,0.1,0.2,0.2,0.3
					c0.1,0.1,0.1,0.1,0.2,0.2c0,0,0.1,0,0.1,0c0,0,0.1,0,0.1,0c0.2,0,0.4-0.1,0.5-0.1c0,0,0.1,0,0.1-0.1c0.1,0.1,0.1,0.1,0.2,0.2
					c0,0,0,0-0.1,0c-0.1,0.1-0.1,0.1-0.2,0.2c-0.1,0.2-0.1,0.3-0.1,0.5c0,0.2,0.1,0.3,0.2,0.4l0,0l0,0l0,0c0,0,0,0,0.1,0
					c0,0,0,0,0,0c0.2,0.1,0.5,0,0.7-0.2c0,0,0,0,0,0c0,0,0-0.1,0-0.1c0,0,0-0.1,0-0.1c0,0-0.1-0.1-0.1-0.1c0,0,0,0-0.1,0
					c0,0-0.1,0-0.1,0c-0.1,0-0.1,0-0.1,0c0,0,0,0.1,0,0.1c0,0,0.1,0.1,0.1,0.1c0,0-0.1,0-0.1,0c-0.1-0.1-0.1-0.3-0.1-0.4
					c0,0,0,0,0.1-0.1c0,0,0.1,0,0.1-0.1c0.1-0.1,0.3,0,0.4,0c0,0,0.1,0,0.1,0.1c0,0,0.1,0.1,0.1,0.1c0,0.1,0.1,0.2,0.1,0.3
					c0,0.2,0,0.4-0.2,0.6c0,0-0.1,0.1-0.1,0.1c0,0-0.1,0.1-0.1,0.1c-0.1,0.1-0.2,0.1-0.3,0.1c-0.2,0.1-0.4,0.1-0.7,0
					c-0.2-0.1-0.4-0.2-0.5-0.3c-0.2-0.1-0.3-0.3-0.4-0.4c-0.2-0.3-0.3-0.6-0.3-0.8c-0.1-0.2-0.1-0.3-0.1-0.3c0,0-0.1,0.1-0.1,0.4
					c0,0.2,0,0.6,0.2,1c0.1,0.2,0.2,0.4,0.4,0.6c0.2,0.2,0.5,0.4,0.8,0.5c0.3,0.1,0.7,0.1,1,0c0.2,0,0.3-0.1,0.5-0.2
					c0.1,0,0.2-0.1,0.2-0.2c0.1-0.1,0.1-0.1,0.2-0.2c0.3-0.3,0.4-0.8,0.3-1.1c0-0.2-0.1-0.4-0.2-0.5c-0.1-0.1-0.1-0.2-0.2-0.2
					c0-0.1-0.1-0.1-0.2-0.1c0,0,0.1-0.1,0.1-0.1c0.2-0.2,0.2-0.5,0.2-0.7c0-0.2-0.1-0.3-0.2-0.4c-0.1-0.1-0.1-0.1-0.2-0.1
					c0,0-0.1,0.1-0.1,0.2c0,0.1,0,0.2-0.1,0.3c-0.1,0.2-0.3,0.4-0.5,0.3c-0.1,0-0.2,0-0.3-0.1c-0.1-0.1-0.1-0.2-0.2-0.3
					c0-0.1,0-0.2,0-0.3c0,0,0,0,0-0.1C1083.6,340.1,1084.4,340,1084.4,339.9z M1078.6,341.9c-0.1-0.1-0.3-0.2-0.4-0.3
					c0,0-0.1,0-0.1-0.1l0,0l0,0l0,0c0,0,0,0,0,0c0,0,0,0,0,0c0,0,0,0,0,0l0,0l0,0l0,0c0,0,0,0,0,0l0,0c0.1,0,0.1-0.1,0.2-0.1
					c0.2-0.2,0.4-0.3,0.6-0.4c0.1,0,0.1-0.1,0.2-0.1c0,0.2,0,0.5,0,0.7c0,0.2,0,0.5,0,0.7C1078.9,342.1,1078.7,342,1078.6,341.9z"/>
				<path class="st3" d="M1072.7,339.9c0-0.2-0.2-0.4-0.4-0.4s-0.4,0.2-0.4,0.4c0,0.2,0.1,0.3,0.3,0.3c-0.1,0.3-0.2,1-0.2,1.8
					c0,1.1,0.2,1.9,0.4,1.9c0.2,0,0.4-0.9,0.4-1.9c0-0.8-0.1-1.5-0.2-1.8C1072.6,340.2,1072.7,340.1,1072.7,339.9z"/>
			</g>
		</g>
		<g>
			<path class="st3" d="M1085.2,343.5l-0.7-0.9c0,0.4-0.2,0.7-0.4,1L1085.2,343.5z"/>
			<path class="st3" d="M1084.4,341.6c0.1,0.2,0.2,0.5,0.2,0.7l0.8-0.8l-1.1-0.2C1084.3,341.4,1084.3,341.5,1084.4,341.6z"/>
			<path class="st3" d="M1080.6,343.2c-0.1-0.2-0.2-0.5-0.2-0.7l-0.8,0.8l1.1,0.2C1080.7,343.4,1080.6,343.3,1080.6,343.2z"/>
			<path class="st3" d="M1083.3,344.3c-0.1,0-0.1,0.1-0.2,0.1l1,0.5l-0.1-1.1C1083.8,344,1083.6,344.2,1083.3,344.3z"/>
			<path class="st3" d="M1081.8,344.4l0.5,1l0.6-1C1082.6,344.5,1082.2,344.5,1081.8,344.4z"/>
			<path class="st3" d="M1080.8,343.6l-0.1,1.1l1-0.4C1081.4,344.2,1081.1,344,1080.8,343.6z"/>
		</g>
	</g>
	<path class="st4" d="M1078.2,349.1c-1.9-0.8-4-1.7-6.2-1.4c0.5,0.6,1,1.1,1.6,1.5c0,0,0.1,0,0.1,0.1c1.6,0.1,3.1,0.6,4.5,1.1
		c0.2,0.1,0.4,0.1,0.6,0.2c0.7-0.1,1.4-0.2,2-0.5C1080,349.9,1079.1,349.5,1078.2,349.1z"/>
	<path class="st5" d="M1078.2,349.1c0.9,0.4,1.8,0.7,2.6,1c0.5-0.2,1-0.4,1.4-0.7c-1.4-0.2-2.7-0.8-4-1.4c-2.2-1-4.4-2.1-7-1.5
		c0.2,0.4,0.5,0.9,0.8,1.3C1074.3,347.5,1076.3,348.4,1078.2,349.1z"/>
	<path class="st6" d="M1073.7,349.3c1.3,0.9,2.7,1.3,4.3,1.3c0.3,0,0.6,0,0.9,0c-0.2-0.1-0.4-0.1-0.6-0.2
		C1076.8,349.9,1075.3,349.4,1073.7,349.3z"/>
</g>
<g>
	<path class="st0" d="M1026.7,351.7c-2.9,0-5.7-1-8.7-2.1c-4.1-1.4-8.2-3-12.8-2c1.5-0.2,3.1-0.1,4.7,0.2c2.9,0.6,5.6,1.8,8.2,3.1
		c4.7,2.4,8,3.3,10.3,3.4c1-1,1.9-2.2,2.7-3.5C1029.5,351.5,1028.1,351.7,1026.7,351.7z"/>
	<path class="st1" d="M1027.4,354.5c-3.3,0-6.4-1.5-9.7-3c-4.6-2.2-9.3-4.6-15.1-3c-0.2,0.1-0.4,0.2-0.5,0.2c2.3,6,8.1,10.3,15,10.3
		c4.3,0,8.3-1.7,11.1-4.5C1027.9,354.5,1027.6,354.5,1027.4,354.5z"/>
	<path class="st2" d="M1009.7,346.6c3,0.2,5.8,1.2,8.6,2.2c4.6,1.6,8.9,3.1,13.3,0.7c0.9-2,1.4-4.2,1.4-6.6c0-8.8-7.2-16-16-16
		c-8.8,0-16,7.2-16,16c0,1.8,0.3,3.4,0.8,5C1004.3,346.8,1006.9,346.4,1009.7,346.6z"/>
	<g>
		<g>
			<g>
				<path class="st3" d="M1016.7,343.9c0,0.1,0,0.1,0.1,0.2c0,0.1,0.1,0.1,0.1,0.1c0.1,0.1,0.3,0.1,0.4,0c0.1,0,0.2-0.1,0.3-0.2
					c0.1-0.1,0.1-0.1,0.2-0.1c0,0,0.1,0,0.1,0.1c0,0,0,0,0,0.1c0,0,0,0.1,0,0.1c0,0,0,0.1,0,0.1c0,0,0,0.1,0,0.2
					c0,0.1-0.1,0.2-0.2,0.3c0,0.1-0.1,0.1-0.2,0.2c-0.1,0-0.2,0.1-0.2,0.1c-0.1,0-0.2,0-0.3,0c-0.1,0-0.1,0-0.2,0
					c-0.1,0-0.1,0-0.2,0c-0.2-0.1-0.4-0.2-0.6-0.4c-0.1-0.2-0.2-0.4-0.2-0.7c0-0.3,0.1-0.5,0.2-0.7c0.1-0.2,0.4-0.3,0.6-0.4
					c0.1,0,0.1,0,0.2,0c0.1,0,0.1,0,0.2,0c0,0,0.1,0,0.1,0l0.1,0c0,0,0.1,0,0.1,0c0.1,0,0.2,0.1,0.2,0.1c0.1,0,0.1,0.1,0.2,0.1
					c0.2,0.2,0.3,0.5,0.3,0.6c0,0.2-0.1,0.2-0.1,0.2c-0.1,0-0.1-0.1-0.2-0.1c-0.1-0.1-0.2-0.2-0.3-0.2c-0.1,0-0.1,0-0.2,0
					c0,0,0,0-0.1,0l0,0l0,0c0,0,0,0,0,0c0,0,0,0,0,0C1016.8,343.6,1016.7,343.7,1016.7,343.9z"/>
			</g>
			<g>
				<path class="st3" d="M1005.5,335.6c-0.2-0.6-0.1-1.5,0.1-2c1.2-2.7,5.1-2.6,7.4-1.6c0.9,0.4,1.8,0.8,2.7,1.3
					c2.2,1.1,5.7,3,7.9,1c0.2-0.2,0.4-0.4,0.5-0.6c0.1-0.2,0.1-0.2,0.1-0.3c0,0-0.1,0-0.3,0c-0.1,0.1-0.4,0.2-0.6,0.3
					c-0.5,0.2-1.3,0.4-2.2,0.3c-1.8-0.3-3.4-1.4-4.9-2.2c-1.6-0.9-3.2-1.7-5-1.9c-1.6-0.2-3.6,0.2-4.9,1.2
					C1004.8,332.2,1003.8,334.3,1005.5,335.6z"/>
				<path class="st3" d="M1029.9,336.8c0-0.4-3.8-0.7-8.4-0.7c-0.5,0-1,0-1.5,0c-0.1-0.1-0.1-0.2-0.2-0.2c-0.1,0-0.1,0.1-0.2,0.2
					c-2.9,0.1-5.3,0.2-6.1,0.5c-0.1-0.4-0.2-0.7-0.4-0.7c-0.2,0-0.4,0.5-0.5,1.2c-0.2-0.2-0.4-0.4-0.7-0.6c-0.6-0.3-1.6-0.5-2.5-0.2
					c-0.5,0.2-0.9,0.5-1.3,0.9c-0.4,0.4-0.7,0.9-0.8,1.5c0,0,0,0.1,0,0.1l0,0.1c0,0.1,0,0.2,0,0.3c0,0.1,0,0.2,0,0.3
					c0,0.1,0,0.2,0,0.3c0,0.2,0.1,0.4,0.2,0.5c0.1,0.1,0.1,0.1,0.2,0.2c0.1,0.1,0.2,0.1,0.2,0.1c0.2,0.1,0.3,0.1,0.5,0.1
					c0.2,0,0.4-0.1,0.6-0.2c0.1,0,0.2-0.1,0.4-0.1c0.1,0,0.2-0.1,0.2-0.1c0.1,0,0.3-0.1,0.3-0.1c0.1,0,0.2,0,0.3,0.1
					c0.2,0.1,0.3,0.2,0.3,0.4c0,0.2,0,0.4-0.1,0.6c0,0.1-0.1,0.2-0.1,0.2l0,0.1l0,0.1c0,0,0,0.1-0.1,0.1c-0.2,0.3-0.2,0.5-0.2,0.6
					c0.1,0.1,0.3,0,0.6-0.2c0,0,0.1,0,0.1-0.1l0.1,0l0.1-0.1c0.1-0.1,0.2-0.2,0.3-0.3c0.2-0.2,0.4-0.6,0.4-1c0-0.2,0-0.5-0.2-0.7
					c-0.1-0.2-0.3-0.4-0.5-0.6c-0.2-0.2-0.5-0.3-0.8-0.3c-0.3-0.1-0.6,0-0.8,0c-0.1,0-0.2,0.1-0.4,0.1l-0.2,0l-0.1,0c0,0,0,0,0,0
					c0,0,0,0,0,0c0,0,0,0,0,0c0,0,0,0,0,0l0-0.1l0,0l0-0.1c0.2-0.7,0.6-1.2,1.2-1.5c0.6-0.3,1.2-0.3,1.6-0.1c0.4,0.1,0.8,0.3,1,0.5
					c-0.1,0.6-0.1,1.3-0.1,2.1c0,2.3,0.3,4.2,0.7,4.2c0.4,0,0.7-1.9,0.7-4.2c0-1.2-0.1-2.3-0.2-3.1c0.9,0.2,3,0.4,5.7,0.5
					c0,0.1,0,0.3,0,0.4c-0.2,0-0.5,0-0.8,0.1c-0.5,0.1-1,0.3-1.6,0.5c-0.1,0.1-0.3,0.1-0.4,0.2l0,0l0,0l-0.1,0.1l-0.2,0.1
					c-0.1,0.1-0.2,0.2-0.4,0.2c-0.2,0.2-0.5,0.4-0.7,0.6c-0.1,0.1-0.2,0.2-0.4,0.3c-0.1,0.1-0.2,0.2-0.4,0.3
					c0.3,0.1,0.6,0.2,0.9,0.3c0.4,0.1,0.7,0.3,1,0.4c0.1,0.1,0.3,0.1,0.4,0.2c0.1,0,0.1,0.1,0.2,0.1c0.3,0.1,0.6,0.3,0.8,0.4
					c0.5,0.3,0.9,0.6,1.3,0.9c0.2,0.2,0.4,0.4,0.5,0.5c0.1,0.6,0.3,1,0.5,1c0.4,0,0.7-1.9,0.7-4.2c0-1-0.1-1.9-0.2-2.6
					c0.4,0,0.8,0,1.2,0c1.3,0,2.6,0,3.7-0.1c-0.1,0.1-0.2,0.4-0.3,0.6c0,0.1,0,0.2,0,0.3c0,0-0.1,0-0.1,0c-0.2,0.1-0.4,0.1-0.6,0.1
					c0,0-0.1,0-0.1,0c0,0,0,0,0,0c0,0-0.1,0-0.1,0c-0.1,0-0.2-0.1-0.3-0.2c-0.2-0.1-0.4-0.2-0.6-0.2c-0.2,0-0.3,0.3-0.2,0.7
					c0.1,0.2,0.2,0.4,0.4,0.7c0.1,0.1,0.3,0.2,0.4,0.3c0.1,0,0.2,0.1,0.3,0.1c0.1,0,0.2,0,0.3,0c0.4,0,0.7-0.1,1-0.3
					c0.1,0,0.1-0.1,0.2-0.1c0.1,0.2,0.3,0.3,0.4,0.4c0,0-0.1,0.1-0.1,0.1c-0.1,0.1-0.2,0.3-0.3,0.4c-0.2,0.3-0.2,0.7-0.1,1
					c0.1,0.3,0.2,0.6,0.4,0.8l0,0l0.1,0l0.1,0c0,0,0.1,0.1,0.1,0.1c0,0,0.1,0,0.1,0c0.4,0.2,1.1,0.1,1.3-0.4c0,0,0,0,0-0.1
					c0-0.1,0-0.1,0-0.1c0-0.1,0-0.2-0.1-0.2c-0.1-0.1-0.1-0.1-0.2-0.2c-0.1,0-0.1-0.1-0.1-0.1c-0.1,0-0.2-0.1-0.2-0.1
					c-0.1,0-0.2,0-0.2,0c0,0,0,0.1,0,0.2c0,0.1,0.2,0.2,0.1,0.2c0,0.1-0.2,0.1-0.2,0c-0.2-0.1-0.3-0.5-0.1-0.7c0,0,0.1-0.1,0.1-0.1
					c0.1,0,0.1-0.1,0.2-0.1c0.3-0.1,0.6-0.1,0.8,0.1c0.1,0,0.1,0.1,0.2,0.2c0.1,0.1,0.1,0.1,0.2,0.2c0.1,0.2,0.2,0.3,0.2,0.5
					c0.1,0.4-0.1,0.8-0.3,1.1c-0.1,0.1-0.2,0.2-0.2,0.2c-0.1,0.1-0.2,0.1-0.3,0.2c-0.2,0.1-0.4,0.2-0.6,0.3c-0.4,0.1-0.9,0.1-1.3,0
					c-0.4-0.1-0.8-0.3-1.1-0.6c-0.3-0.3-0.6-0.6-0.8-0.9c-0.4-0.6-0.6-1.2-0.7-1.6c-0.1-0.4-0.2-0.7-0.3-0.7c-0.1,0-0.2,0.2-0.3,0.7
					c-0.1,0.5,0,1.2,0.3,2.1c0.2,0.4,0.5,0.8,0.8,1.3c0.4,0.4,0.9,0.8,1.5,1c0.6,0.2,1.3,0.3,2,0.1c0.4-0.1,0.7-0.2,1-0.4
					c0.2-0.1,0.3-0.2,0.5-0.3c0.1-0.1,0.3-0.2,0.4-0.4c0.5-0.6,0.8-1.5,0.6-2.3c-0.1-0.4-0.2-0.8-0.4-1.1c-0.1-0.2-0.2-0.3-0.3-0.4
					c-0.1-0.1-0.2-0.2-0.4-0.3c0.1-0.1,0.2-0.1,0.2-0.2c0.4-0.4,0.5-1,0.4-1.3c-0.1-0.4-0.2-0.7-0.4-0.8c-0.2-0.1-0.3-0.2-0.4-0.1
					c-0.1,0.1-0.1,0.2-0.1,0.3c0,0.2-0.1,0.3-0.1,0.5c-0.1,0.4-0.5,0.7-1,0.7c-0.2,0-0.4-0.1-0.6-0.2c-0.2-0.1-0.3-0.3-0.3-0.5
					c-0.1-0.2-0.1-0.4-0.1-0.5c0-0.1,0-0.1,0-0.1C1028.3,337.3,1029.9,337.1,1029.9,336.8z M1018.2,340.8c-0.3-0.2-0.6-0.4-0.9-0.6
					c-0.1,0-0.2-0.1-0.2-0.1l-0.1,0l0,0l0,0c0,0,0,0,0,0c0,0,0,0,0,0c0,0,0,0,0,0l0,0l0,0l0,0c0,0,0,0,0,0l0,0
					c0.1-0.1,0.2-0.2,0.3-0.2c0.5-0.3,0.9-0.5,1.3-0.8c0.2-0.1,0.3-0.2,0.4-0.2c0,0.4,0,0.9,0,1.4c0,0.5,0,1,0,1.4
					C1018.8,341.3,1018.5,341,1018.2,340.8z"/>
				<path class="st3" d="M1006.5,336.8c0-0.4-0.4-0.7-0.9-0.7c-0.5,0-0.9,0.3-0.9,0.7c0,0.3,0.2,0.6,0.6,0.7c-0.3,0.6-0.4,2-0.4,3.6
					c0,2.1,0.3,3.9,0.7,3.9c0.4,0,0.7-1.7,0.7-3.9c0-1.6-0.2-3-0.4-3.6C1006.2,337.4,1006.5,337.1,1006.5,336.8z"/>
			</g>
		</g>
		<g>
			<path class="st3" d="M1031.4,344l-1.4-1.8c-0.1,0.8-0.4,1.5-0.8,2.1L1031.4,344z"/>
			<path class="st3" d="M1029.7,340.2c0.2,0.5,0.3,1,0.3,1.5l1.5-1.7l-2.2-0.5C1029.5,339.7,1029.6,339.9,1029.7,340.2z"/>
			<path class="st3" d="M1022.1,343.4c-0.2-0.5-0.3-1-0.3-1.5l-1.5,1.7l2.2,0.5C1022.4,343.9,1022.2,343.7,1022.1,343.4z"/>
			<path class="st3" d="M1027.6,345.6c-0.1,0.1-0.3,0.1-0.4,0.1l2,1l-0.1-2.3C1028.6,345,1028.1,345.4,1027.6,345.6z"/>
			<path class="st3" d="M1024.7,345.7l1.1,2l1.2-1.9C1026.2,346,1025.4,346,1024.7,345.7z"/>
			<path class="st3" d="M1022.6,344.3l-0.3,2.3l2.1-0.9C1023.7,345.4,1023.1,344.9,1022.6,344.3z"/>
		</g>
	</g>
	<path class="st4" d="M1017.4,355.3c-3.9-1.6-7.9-3.3-12.4-2.8c0.9,1.1,2,2.2,3.2,3c0.1,0,0.1,0.1,0.2,0.1c3.1,0.2,6.1,1.2,9,2.1
		c0.4,0.1,0.9,0.3,1.3,0.4c1.4-0.2,2.7-0.5,4-1C1021,356.7,1019.2,356,1017.4,355.3z"/>
	<path class="st5" d="M1017.4,355.3c1.8,0.7,3.5,1.4,5.3,1.9c1-0.4,1.9-0.9,2.8-1.5c-2.7-0.3-5.3-1.5-8-2.7c-4.3-1.9-8.8-4.1-14.1-3
		c0.5,0.9,1,1.7,1.6,2.5C1009.5,352,1013.6,353.7,1017.4,355.3z"/>
	<path class="st6" d="M1008.4,355.7c2.5,1.7,5.5,2.6,8.6,2.6c0.6,0,1.1,0,1.7-0.1c-0.4-0.1-0.9-0.3-1.3-0.4
		C1014.5,356.8,1011.6,355.8,1008.4,355.7z"/>
</g>
<g>
	<path class="st0" d="M955.5,356.1c-4.3,0-8.6-1.5-13.1-3.1c-6.1-2.1-12.3-4.5-19.2-3.1c2.3-0.2,4.6-0.1,7,0.3
		c4.4,0.8,8.4,2.6,12.2,4.6c7.1,3.6,12.1,4.9,15.4,5.2c1.6-1.5,2.9-3.3,4-5.2C959.7,355.7,957.6,356.1,955.5,356.1z"/>
	<path class="st1" d="M956.6,360.3c-5,0-9.7-2.2-14.5-4.5c-6.8-3.3-14-7-22.7-4.5c-0.3,0.1-0.5,0.2-0.8,0.4
		c3.4,9,12.2,15.4,22.4,15.4c6.5,0,12.4-2.6,16.7-6.8C957.3,360.2,956.9,360.3,956.6,360.3z"/>
	<path class="st2" d="M930.1,348.4c4.5,0.4,8.7,1.9,12.8,3.3c6.9,2.4,13.4,4.7,20,1.1c1.3-3,2.1-6.3,2.1-9.8c0-13.3-10.7-24-24-24
		c-13.3,0-24,10.7-24,24c0,2.6,0.4,5.2,1.2,7.5C922,348.8,925.9,348.1,930.1,348.4z"/>
	<g>
		<g>
			<g>
				<path class="st3" d="M940.5,344.3c0,0.1,0,0.2,0.1,0.3c0,0.1,0.1,0.1,0.2,0.2c0.2,0.1,0.4,0.1,0.6,0c0.2-0.1,0.3-0.2,0.4-0.3
					c0.1-0.1,0.2-0.2,0.3-0.2c0,0,0.1,0,0.1,0.1c0,0,0,0.1,0.1,0.1c0,0,0,0.1,0,0.2c0,0.1,0,0.1,0,0.2c0,0.1,0,0.1-0.1,0.2
					c-0.1,0.2-0.2,0.3-0.3,0.5c-0.1,0.1-0.2,0.1-0.3,0.2c-0.1,0.1-0.2,0.1-0.4,0.2c-0.1,0-0.3,0.1-0.4,0.1c-0.1,0-0.2,0-0.2,0
					c-0.1,0-0.2,0-0.2-0.1c-0.3-0.1-0.6-0.3-0.8-0.6c-0.2-0.3-0.4-0.7-0.4-1c0-0.4,0.1-0.8,0.4-1.1c0.2-0.3,0.5-0.5,0.8-0.6
					c0.1,0,0.2,0,0.2-0.1c0.1,0,0.2,0,0.2,0c0,0,0.1,0,0.1,0l0.1,0c0.1,0,0.1,0,0.2,0c0.1,0,0.3,0.1,0.4,0.2
					c0.1,0.1,0.2,0.1,0.3,0.2c0.3,0.3,0.4,0.7,0.4,0.9c0,0.2-0.1,0.3-0.2,0.3c-0.1,0-0.2-0.1-0.3-0.2c-0.1-0.1-0.3-0.2-0.4-0.3
					c-0.1,0-0.2,0-0.3,0c0,0-0.1,0-0.1,0l0,0l0,0c0,0,0,0-0.1,0c0,0,0,0-0.1,0C940.7,343.9,940.5,344.1,940.5,344.3z"/>
			</g>
			<g>
				<path class="st3" d="M923.7,331.9c-0.3-0.9-0.2-2.2,0.2-3.1c1.9-4.1,7.7-3.9,11.1-2.4c1.4,0.6,2.7,1.3,4,2
					c3.3,1.7,8.5,4.5,11.9,1.5c0.4-0.3,0.6-0.6,0.7-0.9c0.1-0.2,0.2-0.4,0.1-0.4c-0.1-0.1-0.2,0-0.4,0.1c-0.2,0.1-0.5,0.3-0.9,0.4
					c-0.8,0.3-1.9,0.6-3.3,0.4c-2.7-0.5-5-2-7.4-3.4c-2.4-1.3-4.7-2.6-7.5-2.9c-2.4-0.3-5.4,0.2-7.4,1.9
					C922.7,326.8,921.2,329.9,923.7,331.9z"/>
				<path class="st3" d="M960.3,333.7c0-0.6-5.7-1.1-12.7-1.1c-0.8,0-1.6,0-2.3,0c-0.1-0.2-0.2-0.3-0.3-0.3c-0.1,0-0.2,0.1-0.3,0.3
					c-4.4,0.1-7.9,0.4-9.2,0.7c-0.2-0.6-0.4-1-0.6-1c-0.3,0-0.6,0.7-0.8,1.8c-0.3-0.3-0.6-0.6-1.1-0.9c-1-0.5-2.4-0.8-3.8-0.3
					c-0.7,0.2-1.4,0.7-2,1.3c-0.6,0.6-1,1.4-1.2,2.3c0,0.1,0,0.1,0,0.2l0,0.2c0,0.1,0,0.3,0,0.4c0,0.2,0,0.3,0,0.5
					c0,0.2,0,0.3,0,0.5c0,0.3,0.2,0.6,0.3,0.8c0.1,0.1,0.2,0.2,0.3,0.3c0.1,0.1,0.2,0.2,0.4,0.2c0.2,0.1,0.5,0.1,0.8,0.1
					c0.3,0,0.6-0.1,0.9-0.2c0.2-0.1,0.4-0.1,0.5-0.2c0.1,0,0.2-0.1,0.3-0.1c0.2-0.1,0.4-0.1,0.5-0.1c0.1,0,0.3,0,0.4,0.1
					c0.3,0.2,0.4,0.3,0.5,0.6c0.1,0.2,0,0.6-0.1,0.8c0,0.1-0.1,0.3-0.2,0.4l0,0.1l-0.1,0.1c0,0.1-0.1,0.1-0.1,0.2
					c-0.3,0.5-0.4,0.8-0.3,0.9c0.1,0.1,0.4,0,0.9-0.3c0.1,0,0.1-0.1,0.2-0.1l0.1-0.1l0.1-0.1c0.1-0.1,0.3-0.3,0.4-0.4
					c0.3-0.4,0.5-0.8,0.6-1.5c0-0.3-0.1-0.7-0.2-1.1c-0.2-0.4-0.4-0.6-0.7-0.9c-0.3-0.2-0.7-0.4-1.1-0.5c-0.4-0.1-0.9-0.1-1.2,0
					c-0.2,0-0.4,0.1-0.5,0.1l-0.2,0.1l-0.1,0c0,0,0,0,0,0c0,0,0,0,0,0c0,0,0,0,0,0c0,0,0,0,0,0l0-0.1l0-0.1l0-0.1
					c0.2-1,1-1.8,1.8-2.2c0.8-0.4,1.7-0.4,2.5-0.2c0.7,0.2,1.2,0.5,1.5,0.8c-0.1,0.9-0.1,2-0.1,3.1c0,3.5,0.5,6.3,1.1,6.3
					c0.6,0,1.1-2.8,1.1-6.3c0-1.8-0.1-3.4-0.3-4.6c1.3,0.3,4.5,0.6,8.5,0.7c0,0.2-0.1,0.4-0.1,0.6c-0.3,0-0.8,0.1-1.3,0.2
					c-0.7,0.2-1.5,0.4-2.3,0.8c-0.2,0.1-0.4,0.2-0.6,0.3l0,0l-0.1,0l-0.1,0.1l-0.3,0.2c-0.2,0.1-0.4,0.2-0.5,0.4
					c-0.3,0.3-0.7,0.6-1.1,0.9c-0.2,0.2-0.4,0.3-0.5,0.5c-0.2,0.2-0.4,0.3-0.5,0.5c0.4,0.2,0.9,0.3,1.3,0.5c0.6,0.2,1.1,0.4,1.6,0.6
					c0.2,0.1,0.4,0.2,0.6,0.3c0.1,0.1,0.2,0.1,0.3,0.2c0.4,0.2,0.9,0.4,1.2,0.7c0.8,0.4,1.4,0.9,1.9,1.3c0.3,0.3,0.6,0.6,0.8,0.8
					c0.2,0.9,0.4,1.4,0.7,1.4c0.6,0,1.1-2.8,1.1-6.3c0-1.5-0.1-2.8-0.2-3.9c0.6,0,1.2,0,1.8,0c2,0,3.9,0,5.6-0.1
					c-0.2,0.2-0.3,0.5-0.4,0.9c0,0.1,0,0.3,0,0.4c-0.1,0-0.1,0-0.2,0.1c-0.3,0.1-0.6,0.2-0.9,0.1c0,0-0.1,0-0.1,0c0,0,0,0-0.1,0
					c0,0-0.1,0-0.2,0c-0.2-0.1-0.3-0.2-0.5-0.2c-0.3-0.2-0.7-0.4-1-0.3c-0.3,0.1-0.5,0.5-0.4,1.1c0.1,0.3,0.2,0.7,0.6,1
					c0.2,0.2,0.4,0.3,0.7,0.5c0.1,0.1,0.3,0.1,0.4,0.1c0.1,0,0.3,0,0.4,0.1c0.6,0,1.1-0.2,1.5-0.4c0.1-0.1,0.2-0.1,0.3-0.2
					c0.2,0.2,0.4,0.4,0.6,0.6c-0.1,0-0.1,0.1-0.2,0.1c-0.2,0.2-0.3,0.4-0.5,0.6c-0.2,0.5-0.3,1-0.2,1.4c0.1,0.5,0.3,0.9,0.6,1.1
					l0.1,0.1l0.1,0.1l0.1,0.1c0.1,0,0.1,0.1,0.2,0.1c0.1,0,0.1,0.1,0.1,0.1c0.7,0.3,1.6,0.1,2-0.6c0,0,0-0.1,0-0.1
					c0-0.1,0-0.2,0-0.2c0-0.1-0.1-0.2-0.1-0.3c-0.1-0.1-0.2-0.2-0.2-0.3c-0.1-0.1-0.1-0.1-0.2-0.1c-0.1-0.1-0.2-0.1-0.3-0.1
					c-0.2-0.1-0.3-0.1-0.3,0c-0.1,0.1,0,0.2,0.1,0.4c0.1,0.1,0.2,0.2,0.2,0.4c0,0.1-0.2,0.1-0.3,0c-0.3-0.2-0.4-0.8-0.2-1.1
					c0-0.1,0.1-0.1,0.2-0.2c0.1-0.1,0.2-0.1,0.3-0.2c0.4-0.2,0.9-0.1,1.2,0.1c0.1,0.1,0.2,0.1,0.3,0.2c0.1,0.1,0.2,0.2,0.2,0.3
					c0.1,0.2,0.2,0.5,0.3,0.8c0.1,0.6-0.1,1.2-0.5,1.7c-0.1,0.1-0.2,0.2-0.4,0.4c-0.1,0.1-0.3,0.2-0.4,0.3c-0.3,0.2-0.6,0.3-0.9,0.4
					c-0.7,0.2-1.3,0.2-2,0c-0.6-0.2-1.2-0.5-1.6-0.8c-0.5-0.4-0.8-0.9-1.1-1.3c-0.6-0.9-0.9-1.8-1-2.4c-0.2-0.6-0.2-1-0.4-1
					c-0.1,0-0.3,0.4-0.4,1.1c-0.1,0.7,0,1.8,0.5,3.1c0.3,0.6,0.7,1.3,1.2,1.9c0.6,0.6,1.4,1.2,2.3,1.5c0.9,0.3,2,0.4,3.1,0.1
					c0.5-0.1,1-0.3,1.5-0.6c0.2-0.1,0.5-0.3,0.7-0.5c0.2-0.2,0.4-0.4,0.6-0.6c0.8-1,1.1-2.3,0.9-3.4c-0.1-0.6-0.3-1.1-0.6-1.6
					c-0.2-0.2-0.3-0.5-0.5-0.6c-0.1-0.2-0.3-0.3-0.5-0.4c0.1-0.1,0.2-0.2,0.3-0.3c0.5-0.7,0.7-1.4,0.6-2c-0.1-0.6-0.3-1-0.6-1.2
					c-0.2-0.2-0.4-0.2-0.6-0.2c-0.1,0.1-0.2,0.3-0.2,0.5c0,0.2-0.1,0.5-0.2,0.8c-0.2,0.6-0.8,1.1-1.4,1c-0.3,0-0.6-0.1-0.9-0.3
					c-0.2-0.2-0.4-0.5-0.5-0.8c-0.1-0.3-0.1-0.6-0.1-0.8c0-0.1,0-0.1,0-0.2C957.9,334.4,960.3,334.1,960.3,333.7z M942.8,339.7
					c-0.4-0.3-0.9-0.6-1.3-0.9c-0.1-0.1-0.2-0.1-0.4-0.2l-0.1,0l0,0l0,0c0,0,0,0,0,0c0,0,0,0,0,0c0,0,0,0,0,0l0,0l0,0l0,0
					c0,0,0,0,0,0l0,0c0.2-0.1,0.3-0.2,0.5-0.4c0.7-0.5,1.3-0.8,1.9-1.1c0.2-0.1,0.4-0.2,0.6-0.4c0,0.7-0.1,1.4-0.1,2.1
					c0,0.7,0,1.5,0.1,2.1C943.7,340.4,943.2,340,942.8,339.7z"/>
				<path class="st3" d="M925.2,333.7c0-0.6-0.6-1.1-1.3-1.1s-1.3,0.5-1.3,1.1c0,0.5,0.4,0.9,0.9,1c-0.4,0.9-0.7,2.9-0.7,5.4
					c0,3.2,0.5,5.8,1.1,5.8c0.6,0,1.1-2.6,1.1-5.8c0-2.4-0.3-4.5-0.7-5.3C924.9,334.6,925.2,334.2,925.2,333.7z"/>
			</g>
		</g>
		<g>
			<path class="st3" d="M962.6,344.5l-2.1-2.7c-0.1,1.1-0.6,2.2-1.3,3.1L962.6,344.5z"/>
			<path class="st3" d="M960.1,338.8c0.3,0.7,0.5,1.5,0.5,2.2l2.3-2.5l-3.3-0.7C959.8,338.1,960,338.4,960.1,338.8z"/>
			<path class="st3" d="M948.7,343.6c-0.3-0.7-0.5-1.5-0.5-2.2l-2.3,2.5l3.3,0.7C949.1,344.3,948.9,344,948.7,343.6z"/>
			<path class="st3" d="M956.8,346.9c-0.2,0.1-0.4,0.2-0.6,0.2l3,1.5l-0.2-3.4C958.5,346,957.7,346.5,956.8,346.9z"/>
			<path class="st3" d="M952.5,347.1l1.6,3l1.8-2.9C954.7,347.5,953.6,347.4,952.5,347.1z"/>
			<path class="st3" d="M949.5,344.9l-0.4,3.4l3.1-1.3C951.1,346.6,950.2,345.9,949.5,344.9z"/>
		</g>
	</g>
	<path class="st4" d="M941.7,361.4c-5.8-2.3-11.9-5-18.6-4.1c1.4,1.7,3,3.2,4.8,4.5c0.1,0.1,0.2,0.1,0.3,0.2
		c4.7,0.2,9.2,1.8,13.5,3.2c0.6,0.2,1.3,0.4,1.9,0.6c2.1-0.2,4.1-0.7,6-1.5C947,363.6,944.3,362.5,941.7,361.4z"/>
	<path class="st5" d="M941.7,361.4c2.7,1.1,5.3,2.1,7.9,2.9c1.5-0.6,2.9-1.3,4.2-2.2c-4.1-0.5-8-2.3-12-4.1
		c-6.5-2.9-13.2-6.2-21.1-4.4c0.7,1.3,1.5,2.6,2.4,3.8C929.8,356.4,935.8,359.1,941.7,361.4z"/>
	<path class="st6" d="M928.1,362c3.8,2.6,8.2,3.9,12.9,3.9c0.9,0,1.7-0.1,2.6-0.1c-0.6-0.2-1.3-0.4-1.9-0.6
		C937.3,363.8,932.8,362.2,928.1,362z"/>
</g>
<g>
	<path class="st0" d="M759.4,392.1c-16.2,0-32.3-5.7-48.9-11.5c-22.9-8-46.3-16.9-72.1-11.5c8.6-0.9,17.3-0.5,26.2,1.2
		c16.4,3.2,31.6,9.9,45.9,17.2c26.7,13.7,45.2,18.5,57.8,19.4c5.9-5.8,10.9-12.4,15-19.6C775.3,390.8,767.4,392.1,759.4,392.1z"/>
	<path class="st1" d="M763.4,407.7c-18.7,0-36.2-8.4-54.4-17c-25.6-12.2-52.5-26.1-85.1-16.9c-1,0.4-2,0.9-3,1.3
		c12.9,33.9,45.7,57.9,84.1,57.9c24.4,0,46.5-9.7,62.7-25.4C766.2,407.7,764.8,407.7,763.4,407.7z"/>
	<path class="st2" d="M664.1,363.4c16.9,1.4,32.8,7,48.1,12.4c25.8,9.1,50.2,17.7,74.9,4.1c5.1-11.3,7.9-23.7,7.9-36.9
		c0-49.7-40.3-90-90-90c-49.7,0-90,40.3-90,90c0,9.9,1.6,19.3,4.5,28.2C633.7,364.7,648.4,362.1,664.1,363.4z"/>
	<g>
		<g>
			<g>
				<path class="st3" d="M703.3,347.9c0,0.4,0.1,0.7,0.3,1.1c0.2,0.3,0.5,0.6,0.8,0.8c0.6,0.3,1.5,0.4,2.2,0.1
					c0.7-0.3,1.3-0.7,1.7-1.2c0.4-0.4,0.7-0.8,1.1-0.8c0.2,0,0.3,0.1,0.5,0.3c0.1,0.1,0.1,0.2,0.2,0.4c0.1,0.2,0.1,0.4,0.1,0.6
					c0,0.2,0,0.5,0,0.7c0,0.3-0.1,0.6-0.2,0.9c-0.2,0.6-0.6,1.3-1.2,1.9c-0.3,0.3-0.7,0.6-1.1,0.8c-0.4,0.2-0.9,0.4-1.4,0.6
					c-0.5,0.1-1.1,0.3-1.6,0.2c-0.3,0-0.6,0-0.9,0c-0.3-0.1-0.6-0.1-0.9-0.2c-1.2-0.4-2.3-1.1-3.2-2.2c-0.8-1.1-1.4-2.5-1.4-3.9
					c0-1.5,0.5-2.9,1.3-4c0.8-1.1,2-1.8,3.1-2.2c0.3-0.1,0.6-0.2,0.9-0.2c0.3,0,0.6,0,0.9-0.1c0.1,0,0.3,0,0.4,0l0.4,0.1
					c0.3,0,0.5,0.1,0.8,0.1c0.5,0.2,1,0.3,1.4,0.6c0.4,0.3,0.8,0.5,1.1,0.8c1.2,1.2,1.5,2.6,1.4,3.5c-0.1,0.9-0.5,1.3-0.8,1.3
					c-0.3,0-0.7-0.4-1.1-0.8c-0.4-0.4-1-0.9-1.7-1.2c-0.3-0.1-0.7-0.2-1.1-0.2c-0.1,0-0.2,0-0.3,0l-0.1,0l-0.1,0.1
					c-0.1,0-0.2,0.1-0.3,0.1c-0.1,0-0.2,0.1-0.2,0.1C703.7,346.4,703.3,347.2,703.3,347.9z"/>
			</g>
			<g>
				<path class="st3" d="M640.3,301.5c-1.1-3.4-0.8-8.3,0.7-11.5c7-15.3,28.8-14.5,41.6-9.1c5.1,2.1,10,4.8,14.9,7.3
					c12.4,6.4,32,16.9,44.6,5.5c1.4-1.2,2.2-2.4,2.7-3.2c0.5-0.8,0.6-1.4,0.4-1.6c-0.2-0.2-0.8-0.1-1.6,0.3c-0.8,0.4-2,0.9-3.4,1.6
					c-2.9,1.3-7.1,2.4-12.4,1.4c-10.1-1.9-18.9-7.6-27.7-12.6c-8.8-5-17.8-9.7-28-10.9c-9.1-1.1-20.4,0.9-27.7,7
					C636.2,282.2,630.7,293.9,640.3,301.5z"/>
				<path class="st3" d="M777.5,308.1c0-2.2-21.3-4.1-47.5-4.1c-3,0-5.9,0-8.7,0.1c-0.4-0.6-0.8-1-1.2-1c-0.4,0-0.8,0.4-1.2,1
					c-16.4,0.3-29.5,1.4-34.4,2.8c-0.6-2.4-1.4-3.8-2.2-3.8c-1.1,0-2.1,2.6-2.9,6.8c-1-1.1-2.4-2.3-4.2-3.2
					c-3.6-1.9-8.9-2.9-14.3-0.9c-2.7,0.9-5.2,2.6-7.4,4.9c-2.1,2.3-3.7,5.2-4.5,8.4c-0.1,0.2-0.1,0.4-0.1,0.6l-0.1,0.8
					c-0.1,0.5-0.1,1-0.2,1.5c0,0.6,0,1.2,0,1.8c0,0.6,0,1.2,0.1,1.8c0.2,1.2,0.6,2.1,1.2,3c0.3,0.4,0.7,0.8,1.1,1.1
					c0.4,0.3,0.9,0.6,1.4,0.7c0.9,0.4,1.9,0.4,3,0.3c1.1-0.1,2.2-0.5,3.2-0.9c0.7-0.3,1.4-0.5,2-0.8c0.5-0.2,0.9-0.3,1.3-0.4
					c0.8-0.2,1.4-0.3,2-0.3c0.5,0,1,0.1,1.4,0.4c1,0.6,1.5,1.2,1.8,2.1c0.2,0.9,0.1,2.1-0.3,3.1c-0.2,0.5-0.4,1-0.6,1.4l-0.2,0.3
					l-0.2,0.4c-0.1,0.2-0.3,0.4-0.4,0.7c-1,1.7-1.4,2.8-1,3.2c0.4,0.4,1.5,0,3.2-1c0.2-0.1,0.4-0.3,0.7-0.4l0.4-0.2l0.4-0.3
					c0.6-0.4,1.1-1,1.6-1.7c1-1.3,2.1-3.2,2.1-5.7c0-1.3-0.2-2.7-0.8-4c-0.6-1.3-1.6-2.4-2.8-3.3c-1.1-0.9-2.7-1.7-4.3-2
					c-1.6-0.3-3.2-0.2-4.6,0.1c-0.7,0.1-1.4,0.3-2,0.5l-0.9,0.3l-0.3,0.1c-0.1,0,0,0-0.1,0c-0.1,0-0.1,0-0.2-0.1c0,0,0-0.1,0-0.2
					c0,0,0,0,0-0.1l0.1-0.4l0-0.2l0.1-0.3c0.9-3.8,3.6-6.8,6.7-8.2c3.1-1.5,6.6-1.5,9.2-0.7c2.5,0.7,4.3,1.9,5.7,2.9
					c-0.3,3.5-0.5,7.5-0.5,11.7c0,13,1.8,23.5,4.1,23.5c2.2,0,4.1-10.5,4.1-23.5c0-6.8-0.5-12.9-1.3-17.2c5,1.2,17,2.2,31.9,2.6
					c-0.1,0.7-0.2,1.4-0.3,2.2c-1.3,0-2.9,0.2-4.7,0.6c-2.6,0.6-5.6,1.5-8.8,3.1c-0.8,0.4-1.6,0.8-2.4,1.3l-0.2,0.1l-0.2,0.2
					l-0.5,0.3l-1,0.7c-0.7,0.5-1.4,0.9-2.1,1.4c-1.3,1.1-2.6,2.2-4,3.3c-0.7,0.6-1.4,1.2-2.1,1.7c-0.7,0.6-1.3,1.2-2,1.7
					c1.6,0.6,3.2,1.2,4.8,1.8c2.1,0.8,4,1.5,5.9,2.4c0.7,0.3,1.4,0.7,2.1,1c0.4,0.2,0.8,0.4,1.3,0.6c1.7,0.8,3.2,1.6,4.7,2.5
					c2.9,1.6,5.3,3.3,7.1,4.9c1.3,1.1,2.2,2.2,2.9,3.1c0.7,3.3,1.6,5.3,2.6,5.3c2.2,0,4.1-10.5,4.1-23.5c0-5.5-0.3-10.5-0.9-14.5
					c2.2,0,4.4,0,6.6,0c7.6,0,14.7-0.2,21.1-0.4c-0.7,0.8-1.3,2-1.6,3.6c-0.1,0.5-0.1,1.1-0.1,1.7c-0.2,0.1-0.4,0.1-0.6,0.2
					c-1.2,0.4-2.4,0.6-3.4,0.5c-0.1,0-0.3,0-0.4,0c-0.1,0-0.1,0-0.2,0c-0.2,0-0.4-0.1-0.7-0.2c-0.6-0.2-1.3-0.6-1.9-0.9
					c-1.3-0.7-2.5-1.4-3.6-1.1c-1.1,0.2-1.9,1.8-1.3,4.1c0.3,1.2,0.9,2.5,2.1,3.8c0.6,0.6,1.4,1.2,2.4,1.7c0.5,0.2,1.1,0.4,1.7,0.5
					c0.5,0.1,1,0.2,1.6,0.2c2.1,0.1,4.2-0.6,5.6-1.7c0.4-0.3,0.7-0.5,1-0.8c0.7,0.8,1.5,1.6,2.4,2.3c-0.2,0.2-0.4,0.4-0.6,0.5
					c-0.6,0.6-1.3,1.5-1.7,2.4c-0.9,1.8-1.1,3.7-0.7,5.4c0.3,1.7,1.2,3.2,2.2,4.2l0.2,0.2l0.3,0.3l0.3,0.2c0.2,0.1,0.4,0.3,0.6,0.4
					c0.2,0.1,0.4,0.2,0.5,0.3c2.4,1.1,6.2,0.4,7.4-2.2c0.1-0.1,0.1-0.3,0.1-0.4c0.1-0.3,0.1-0.6,0.1-0.8c-0.1-0.5-0.2-0.8-0.4-1.1
					c-0.3-0.5-0.6-0.7-0.9-1c-0.3-0.2-0.5-0.4-0.8-0.5c-0.5-0.3-0.9-0.4-1.2-0.6c-0.7-0.2-1.1-0.3-1.3-0.1c-0.2,0.2-0.1,0.7,0.2,1.3
					c0.2,0.4,0.9,0.8,0.7,1.3c-0.2,0.5-0.9,0.3-1.2,0.1c-1.3-0.7-1.5-2.9-0.7-4.1c0.2-0.2,0.3-0.4,0.7-0.6c0.3-0.2,0.7-0.4,1-0.6
					c1.4-0.7,3.3-0.5,4.6,0.4c0.4,0.2,0.6,0.5,0.9,0.9c0.4,0.4,0.7,0.8,0.9,1.3c0.5,0.9,0.9,2,1,3.1c0.3,2.2-0.3,4.5-1.9,6.3
					c-0.3,0.4-0.9,0.9-1.4,1.3c-0.5,0.4-1,0.8-1.6,1.2c-1.1,0.7-2.3,1.2-3.5,1.5c-2.5,0.7-5,0.7-7.3,0.1c-2.3-0.6-4.4-1.7-6-3.2
					c-1.8-1.6-3.2-3.3-4.3-5c-2.2-3.4-3.2-6.8-3.9-9.1c-0.6-2.4-0.9-3.8-1.5-3.9c-0.5-0.1-1.3,1.3-1.7,4.1
					c-0.3,2.7-0.1,6.9,1.9,11.6c1,2.3,2.5,4.8,4.6,7c2.2,2.4,5.1,4.4,8.6,5.6c3.5,1.2,7.5,1.4,11.5,0.4c2-0.5,3.9-1.3,5.7-2.3
					c0.9-0.5,1.8-1.2,2.6-1.8c0.8-0.7,1.6-1.4,2.4-2.3c3.1-3.6,4.3-8.4,3.5-12.8c-0.4-2.2-1.2-4.2-2.3-6c-0.6-0.9-1.2-1.7-2-2.4
					c-0.6-0.6-1.3-1.2-2-1.7c0.4-0.4,0.9-0.8,1.2-1.3c2-2.5,2.6-5.4,2.3-7.6c-0.3-2.2-1.3-3.7-2.1-4.5c-0.9-0.8-1.7-0.9-2.1-0.6
					c-0.5,0.3-0.6,1-0.8,1.9c-0.1,0.9-0.3,1.9-0.7,3c-0.8,2.1-2.9,4-5.4,3.8c-1.2,0-2.4-0.5-3.3-1.3c-0.9-0.8-1.5-1.8-1.9-2.9
					c-0.4-1.1-0.4-2.1-0.5-3c0-0.3-0.1-0.5-0.1-0.8C768.3,310.9,777.5,309.6,777.5,308.1z M711.6,330.6c-1.6-1.1-3.2-2.2-5-3.2
					c-0.4-0.3-0.9-0.5-1.4-0.7l-0.3-0.2l-0.1-0.1l-0.1-0.1c0,0,0,0-0.1,0c0,0,0,0-0.1,0c0,0,0-0.1,0-0.2l0.1-0.1l0.1-0.1l0,0
					c0,0,0,0,0,0l0.1-0.1c0.7-0.4,1.3-0.9,1.9-1.3c2.6-1.7,5-3.1,7.1-4.3c0.9-0.5,1.7-0.9,2.4-1.3c-0.2,2.5-0.2,5.1-0.2,7.9
					c0,2.8,0.1,5.5,0.2,8C715,333.2,713.4,331.8,711.6,330.6z"/>
				<path class="st3" d="M645.8,308.1c0-2.2-2.1-4.1-4.8-4.1c-2.6,0-4.8,1.8-4.8,4.1c0,1.8,1.3,3.3,3.2,3.8
					c-1.5,3.3-2.5,11-2.5,20.1c0,12,1.8,21.7,4.1,21.7c2.2,0,4.1-9.7,4.1-21.7c0-9-1-16.8-2.5-20.1
					C644.5,311.4,645.8,309.9,645.8,308.1z"/>
			</g>
		</g>
		<g>
			<path class="st3" d="M786.1,348.8l-7.8-10c-0.5,4.3-2.1,8.3-4.8,11.7L786.1,348.8z"/>
			<path class="st3" d="M776.7,327.2c1.1,2.7,1.7,5.4,1.8,8.2l8.5-9.4l-12.4-2.6C775.4,324.6,776.1,325.8,776.7,327.2z"/>
			<path class="st3" d="M733.9,345.3c-1.1-2.7-1.7-5.5-1.8-8.2l-8.5,9.5l12.5,2.6C735.2,348,734.5,346.7,733.9,345.3z"/>
			<path class="st3" d="M764.3,357.7c-0.7,0.3-1.5,0.6-2.3,0.8l11.3,5.8l-0.7-12.7C770.5,354.1,767.7,356.3,764.3,357.7z"/>
			<path class="st3" d="M748.1,358.3l6,11.2l6.7-10.8C756.5,359.9,752.1,359.7,748.1,358.3z"/>
			<path class="st3" d="M736.7,350.2l-1.6,12.7l11.7-5C742.9,356.4,739.4,353.8,736.7,350.2z"/>
		</g>
	</g>
	<path class="st4" d="M707.4,412.1c-21.8-8.8-44.5-18.7-69.8-15.5c5.1,6.4,11.2,12.1,18,16.9c0.4,0.3,0.7,0.5,1.1,0.8
		c17.6,0.9,34.4,6.7,50.6,11.9c2.4,0.8,4.8,1.6,7.2,2.3c7.8-0.9,15.4-2.8,22.6-5.7C727.4,420.1,717.5,416.1,707.4,412.1z"/>
	<path class="st5" d="M707.4,412.1c10.1,4.1,19.9,8.1,29.8,10.7c5.5-2.2,10.8-5,15.7-8.4c-15.2-1.8-30-8.5-45.2-15.3
		c-24.2-10.9-49.6-23.2-79.3-16.6c2.6,5,5.6,9.7,9.1,14.1C663,393.4,685.7,403.3,707.4,412.1z"/>
	<path class="st6" d="M656.8,414.2C671,423.9,687.7,429,705,429c3.2,0,6.5-0.2,9.6-0.5c-2.4-0.8-4.8-1.5-7.2-2.3
		C691.2,420.9,674.4,415.1,656.8,414.2z"/>
</g>
<g>
	<path class="st0" d="M877.1,124.4c-17.3,0-34.4-6.1-52.2-12.3c-24.4-8.6-49.4-18.1-76.9-12.2c9.2-1,18.4-0.6,27.9,1.3
		c17.4,3.4,33.7,10.6,48.9,18.4c28.5,14.6,48.2,19.7,61.7,20.7c6.2-6.2,11.7-13.2,16-20.9C894,122.9,885.5,124.4,877.1,124.4z"/>
	<path class="st1" d="M881.2,141c-19.9,0-38.6-8.9-58-18.2c-27.3-13-56-27.9-90.8-18c-1.1,0.4-2.1,0.9-3.2,1.4
		C743.1,142.3,778,168,819,168c26,0,49.6-10.3,66.9-27.1C884.3,141,882.8,141,881.2,141z"/>
	<path class="st2" d="M775.3,93.8c18,1.5,35,7.5,51.3,13.2c27.5,9.7,53.5,18.8,79.9,4.4C912,99.3,915,86,915,72c0-53-43-96-96-96
		c-53,0-96,43-96,96c0,10.5,1.7,20.6,4.8,30.1C743,95.1,758.6,92.4,775.3,93.8z"/>
	<g>
		<g>
			<g>
				<path class="st3" d="M817.2,77.2c0,0.4,0.1,0.8,0.3,1.1c0.2,0.4,0.5,0.6,0.9,0.8c0.7,0.4,1.6,0.4,2.3,0.1
					c0.7-0.3,1.4-0.8,1.8-1.3c0.4-0.5,0.8-0.9,1.1-0.9c0.2,0,0.4,0.1,0.5,0.3c0.1,0.1,0.2,0.3,0.2,0.4c0.1,0.2,0.1,0.4,0.1,0.6
					c0,0.2,0,0.5,0,0.8c0,0.3-0.1,0.6-0.2,0.9c-0.2,0.7-0.6,1.4-1.3,2c-0.3,0.4-0.7,0.6-1.1,0.9c-0.4,0.2-0.9,0.5-1.5,0.6
					c-0.5,0.1-1.1,0.3-1.7,0.2c-0.3,0-0.6,0-0.9,0c-0.3-0.1-0.6-0.1-0.9-0.2c-1.2-0.4-2.5-1.1-3.4-2.3c-0.9-1.2-1.4-2.6-1.5-4.2
					c0-1.6,0.5-3.1,1.4-4.2c0.9-1.2,2.1-2,3.3-2.4c0.3-0.1,0.6-0.2,0.9-0.2c0.3,0,0.6,0,0.9-0.1c0.2,0,0.3,0,0.5,0l0.4,0.1
					c0.3,0,0.6,0.1,0.8,0.1c0.5,0.2,1.1,0.4,1.5,0.6c0.4,0.3,0.8,0.5,1.2,0.9c1.3,1.3,1.6,2.8,1.5,3.7c-0.1,0.9-0.5,1.4-0.8,1.4
					c-0.4,0-0.7-0.4-1.2-0.8c-0.4-0.5-1-1-1.8-1.2c-0.4-0.2-0.8-0.2-1.2-0.2c-0.1,0-0.2,0-0.3,0.1l-0.1,0l-0.1,0.1
					c-0.1,0-0.2,0.1-0.3,0.1c-0.1,0-0.2,0.1-0.3,0.1C817.6,75.7,817.2,76.4,817.2,77.2z"/>
			</g>
			<g>
				<path class="st3" d="M749.9,27.7c-1.2-3.7-0.9-8.8,0.7-12.3c7.5-16.3,30.7-15.5,44.4-9.7c5.4,2.3,10.7,5.1,15.9,7.8
					c13.2,6.9,34.1,18.1,47.6,5.8c1.5-1.3,2.4-2.5,2.9-3.4c0.5-0.9,0.6-1.5,0.4-1.7c-0.2-0.2-0.8-0.1-1.7,0.3
					c-0.9,0.4-2.1,1-3.6,1.7c-3.1,1.4-7.6,2.6-13.2,1.5c-10.8-2-20.2-8.1-29.6-13.5c-9.4-5.4-19-10.4-29.9-11.7
					C774-8.6,762-6.5,754.2,0C745.6,7.2,739.7,19.6,749.9,27.7z"/>
				<path class="st3" d="M896.3,34.8c0-2.4-22.7-4.3-50.7-4.3c-3.2,0-6.3,0-9.3,0.1c-0.4-0.7-0.8-1-1.2-1c-0.4,0-0.9,0.4-1.3,1.1
					c-17.5,0.4-31.5,1.5-36.7,3c-0.7-2.6-1.5-4-2.4-4c-1.2,0-2.3,2.8-3,7.2c-1.1-1.2-2.6-2.4-4.4-3.4c-3.8-2.1-9.5-3.1-15.2-1
					c-2.9,1-5.6,2.8-7.8,5.2c-2.3,2.4-4,5.6-4.8,9c-0.1,0.2-0.1,0.4-0.2,0.7l-0.1,0.8c-0.1,0.5-0.1,1.1-0.2,1.6c0,0.7,0,1.3,0,2
					c0,0.7,0,1.3,0.1,1.9c0.2,1.2,0.6,2.3,1.3,3.2c0.3,0.4,0.7,0.8,1.1,1.2c0.5,0.3,0.9,0.6,1.4,0.8c1,0.4,2,0.5,3.2,0.3
					c1.1-0.1,2.3-0.5,3.5-1c0.7-0.3,1.5-0.6,2.2-0.8c0.5-0.2,1-0.3,1.4-0.5c0.8-0.2,1.5-0.3,2.1-0.3c0.5,0,1,0.1,1.5,0.4
					c1.1,0.6,1.6,1.2,1.9,2.2c0.3,1,0.1,2.2-0.3,3.3c-0.2,0.5-0.4,1-0.7,1.5l-0.2,0.3l-0.2,0.4c-0.1,0.2-0.3,0.5-0.4,0.7
					c-1.1,1.8-1.5,3-1,3.5c0.4,0.4,1.6,0,3.4-1.1c0.2-0.1,0.5-0.3,0.7-0.4l0.4-0.2l0.4-0.3c0.6-0.5,1.2-1.1,1.8-1.8
					c1.1-1.4,2.2-3.4,2.3-6.1c0-1.3-0.2-2.8-0.9-4.2c-0.7-1.4-1.7-2.6-2.9-3.6c-1.2-1-2.8-1.8-4.6-2.1c-1.7-0.3-3.4-0.2-5,0.1
					c-0.8,0.1-1.5,0.3-2.2,0.5l-1,0.3l-0.4,0.1c-0.1,0,0,0-0.1,0c-0.1,0-0.1,0-0.2-0.1c0,0,0-0.1,0-0.2c0,0,0,0,0-0.1l0.1-0.4l0-0.2
					l0.1-0.4c0.9-4,3.8-7.3,7.2-8.8c3.3-1.6,7-1.6,9.9-0.8c2.6,0.7,4.6,2,6.1,3.1c-0.4,3.7-0.6,8-0.6,12.5c0,13.8,1.9,25.1,4.3,25.1
					c2.4,0,4.3-11.2,4.3-25.1c0-7.2-0.5-13.8-1.4-18.3c5.4,1.3,18.1,2.4,34,2.8c-0.1,0.8-0.2,1.5-0.3,2.4c-1.4,0.1-3.1,0.3-5,0.7
					c-2.7,0.6-6,1.6-9.4,3.3c-0.9,0.4-1.7,0.9-2.6,1.4l-0.2,0.1l-0.3,0.2l-0.5,0.4l-1.1,0.7c-0.7,0.5-1.5,1-2.2,1.5
					c-1.4,1.1-2.8,2.3-4.2,3.5c-0.7,0.6-1.5,1.2-2.2,1.9c-0.7,0.6-1.4,1.2-2.1,1.9c1.7,0.6,3.4,1.3,5.1,1.9c2.3,0.8,4.3,1.6,6.3,2.5
					c0.8,0.4,1.5,0.7,2.3,1.1c0.4,0.2,0.9,0.4,1.3,0.6c1.8,0.9,3.4,1.7,5,2.6c3.1,1.8,5.7,3.5,7.6,5.2c1.4,1.2,2.4,2.3,3.1,3.3
					c0.7,3.6,1.7,5.7,2.8,5.7c2.4,0,4.3-11.2,4.3-25.1c0-5.8-0.3-11.2-0.9-15.5c2.3,0,4.7,0,7.1,0c8.1,0,15.7-0.2,22.5-0.4
					c-0.7,0.9-1.4,2.1-1.7,3.8c-0.1,0.6-0.2,1.2-0.2,1.8c-0.2,0.1-0.4,0.2-0.6,0.2c-1.3,0.5-2.5,0.6-3.7,0.6c-0.1,0-0.3,0-0.4,0
					c-0.1,0-0.1,0-0.2,0c-0.2,0-0.4-0.1-0.7-0.2c-0.6-0.2-1.4-0.6-2-1c-1.4-0.7-2.6-1.4-3.8-1.2c-1.1,0.2-2,1.9-1.4,4.4
					c0.3,1.2,0.9,2.6,2.3,4c0.7,0.7,1.5,1.3,2.6,1.8c0.5,0.2,1.2,0.5,1.8,0.6c0.5,0.1,1.1,0.2,1.7,0.2c2.3,0.1,4.5-0.6,6-1.8
					c0.4-0.3,0.7-0.6,1.1-0.9c0.7,0.9,1.6,1.7,2.6,2.4c-0.2,0.2-0.4,0.4-0.6,0.6c-0.7,0.7-1.4,1.6-1.8,2.5c-0.9,1.9-1.1,3.9-0.8,5.7
					c0.3,1.8,1.3,3.4,2.4,4.5l0.2,0.2l0.3,0.3l0.3,0.2c0.2,0.2,0.4,0.3,0.6,0.4c0.2,0.1,0.4,0.2,0.6,0.3c2.6,1.2,6.6,0.5,7.9-2.4
					c0.1-0.1,0.1-0.3,0.2-0.4c0.1-0.3,0.1-0.6,0.1-0.9c-0.1-0.5-0.3-0.9-0.4-1.2c-0.3-0.5-0.7-0.8-1-1c-0.3-0.2-0.6-0.4-0.8-0.5
					c-0.5-0.3-0.9-0.5-1.3-0.6c-0.7-0.2-1.2-0.3-1.4-0.1c-0.2,0.2-0.1,0.7,0.2,1.4c0.2,0.4,0.9,0.9,0.7,1.4
					c-0.2,0.6-0.9,0.3-1.3,0.1c-1.4-0.8-1.6-3.1-0.7-4.3c0.2-0.3,0.4-0.4,0.7-0.7c0.3-0.3,0.7-0.5,1.1-0.6c1.5-0.7,3.5-0.6,4.9,0.4
					c0.4,0.3,0.7,0.5,1,0.9c0.4,0.4,0.7,0.9,1,1.4c0.6,1,1,2.1,1.1,3.3c0.3,2.3-0.4,4.9-2,6.7c-0.4,0.4-0.9,1-1.5,1.4
					c-0.5,0.4-1.1,0.9-1.7,1.2c-1.2,0.7-2.5,1.3-3.8,1.7c-2.6,0.7-5.4,0.7-7.8,0.1c-2.5-0.6-4.6-1.8-6.4-3.4
					c-1.9-1.7-3.4-3.5-4.6-5.3c-2.4-3.7-3.5-7.2-4.1-9.7c-0.6-2.5-1-4.1-1.6-4.1c-0.6-0.1-1.4,1.4-1.8,4.3
					c-0.3,2.9-0.1,7.4,2.1,12.4c1.1,2.5,2.7,5.1,4.9,7.5c2.3,2.5,5.5,4.7,9.2,6c3.7,1.2,8,1.5,12.2,0.5c2.1-0.5,4.2-1.3,6.1-2.5
					c1-0.6,1.9-1.2,2.8-1.9c0.9-0.7,1.7-1.5,2.5-2.5c3.3-3.8,4.6-9,3.8-13.6c-0.4-2.3-1.3-4.5-2.5-6.4c-0.6-0.9-1.3-1.8-2.1-2.6
					c-0.6-0.6-1.3-1.2-2.1-1.8c0.5-0.4,0.9-0.9,1.3-1.4c2.1-2.6,2.8-5.7,2.4-8.1c-0.3-2.4-1.3-4-2.3-4.8c-1-0.8-1.8-1-2.3-0.6
					c-0.5,0.3-0.7,1.1-0.8,2c-0.1,0.9-0.3,2-0.8,3.2c-0.8,2.2-3.1,4.2-5.8,4.1c-1.3,0-2.6-0.5-3.5-1.4c-1-0.8-1.6-1.9-2-3
					c-0.4-1.1-0.4-2.2-0.6-3.2c0-0.3-0.1-0.6-0.1-0.8C886.5,37.7,896.3,36.3,896.3,34.8z M826.1,58.7c-1.7-1.2-3.5-2.4-5.4-3.4
					c-0.5-0.3-1-0.5-1.5-0.8l-0.4-0.2l-0.1-0.1l-0.1-0.1c0,0,0,0-0.1-0.1c0,0,0,0-0.1,0c-0.1,0,0-0.1,0-0.2l0.1-0.2l0.1-0.1l0,0
					c0,0,0,0,0,0l0.1-0.1c0.7-0.5,1.4-1,2.1-1.4c2.7-1.8,5.4-3.3,7.6-4.5c0.9-0.5,1.8-1,2.6-1.4c-0.2,2.6-0.3,5.5-0.3,8.4
					c0,3,0.1,5.9,0.3,8.5C829.6,61.5,827.9,60.1,826.1,58.7z"/>
				<path class="st3" d="M755.9,34.8c0-2.4-2.3-4.3-5.1-4.3c-2.8,0-5.1,1.9-5.1,4.3c0,1.9,1.4,3.5,3.4,4.1
					c-1.6,3.5-2.7,11.7-2.7,21.4c0,12.8,1.9,23.2,4.3,23.2c2.4,0,4.3-10.4,4.3-23.2c0-9.6-1.1-17.9-2.7-21.4
					C754.4,38.3,755.9,36.7,755.9,34.8z"/>
			</g>
		</g>
		<g>
			<path class="st3" d="M905.6,78.2l-8.3-10.6c-0.5,4.6-2.3,8.9-5.1,12.5L905.6,78.2z"/>
			<path class="st3" d="M895.5,55.2c1.2,2.9,1.8,5.8,1.9,8.7l9-10l-13.2-2.8C894.1,52.3,894.8,53.7,895.5,55.2z"/>
			<path class="st3" d="M849.8,74.5c-1.2-2.9-1.8-5.8-1.9-8.8l-9.1,10.1l13.3,2.8C851.2,77.4,850.4,76,849.8,74.5z"/>
			<path class="st3" d="M882.3,87.6c-0.8,0.3-1.6,0.6-2.4,0.9l12.1,6.1l-0.7-13.5C888.9,83.9,885.9,86.1,882.3,87.6z"/>
			<path class="st3" d="M865,88.4l6.4,12l7.2-11.5C873.9,90,869.3,89.8,865,88.4z"/>
			<path class="st3" d="M852.9,79.7l-1.7,13.5l12.5-5.3C859.4,86.3,855.7,83.5,852.9,79.7z"/>
		</g>
	</g>
	<path class="st4" d="M821.6,145.7c-23.2-9.4-47.4-20-74.4-16.6c5.5,6.9,11.9,12.9,19.2,18.1c0.4,0.3,0.8,0.5,1.2,0.8
		c18.8,0.9,36.7,7.1,54,12.7c2.6,0.8,5.1,1.7,7.7,2.5c8.3-0.9,16.4-3,24.1-6.1C842.8,154.3,832.3,150,821.6,145.7z"/>
	<path class="st5" d="M821.6,145.7c10.7,4.3,21.2,8.6,31.8,11.4c5.9-2.4,11.5-5.4,16.8-8.9c-16.2-2-31.9-9-48.2-16.3
		c-25.8-11.6-52.9-24.8-84.5-17.7c2.7,5.3,6,10.3,9.7,15C774.2,125.7,798.4,136.3,821.6,145.7z"/>
	<path class="st6" d="M767.6,148c15.2,10.3,32.9,15.8,51.4,15.8c3.5,0,6.9-0.2,10.3-0.6c-2.6-0.8-5.1-1.6-7.7-2.5
		C804.2,155.1,786.3,148.9,767.6,148z"/>
</g>
<g>
	<path class="st0" d="M410.8,395.8c-46,0-91.9-16.1-139.2-32.8c-65-22.9-131.7-48.2-205.1-32.6c24.5-2.7,49.2-1.5,74.5,3.4
		c46.5,9.1,89.8,28.2,130.4,49.1c75.9,38.9,128.6,52.6,164.5,55.2c16.7-16.5,31.1-35.2,42.7-55.7
		C455.9,391.9,433.4,395.8,410.8,395.8z"/>
	<path class="st1" d="M422,440c-53.1,0-102.9-23.8-154.7-48.4c-72.9-34.7-149.3-74.3-242-48.1c-2.8,1.2-5.7,2.5-8.5,3.8
		C53.5,443.6,146.8,512,256,512c69.3,0,132.2-27.6,178.3-72.3C430.2,439.9,426.1,440,422,440z"/>
	<path class="st2" d="M139.5,314c48.1,4,93.2,19.9,136.9,35.2c73.3,25.8,142.8,50.2,213.2,11.6C504,328.9,512,293.4,512,256
		C512,114.6,397.4,0,256,0C114.6,0,0,114.6,0,256c0,28,4.5,55,12.8,80.2C53.2,317.6,95,310.3,139.5,314z"/>
	<g>
		<g>
			<g>
				<path class="st3" d="M251.1,270c0.1,1.1,0.4,2.1,0.9,3c0.5,1,1.4,1.6,2.3,2.1c1.8,1,4.2,1.2,6.1,0.4c1.9-0.7,3.6-2.1,4.7-3.4
					c1.1-1.2,2-2.3,3-2.3c0.5,0,0.9,0.3,1.4,0.8c0.2,0.3,0.4,0.7,0.6,1.1c0.2,0.5,0.3,1,0.4,1.6c0,0.6,0.1,1.3,0,2.1
					c-0.1,0.8-0.3,1.6-0.6,2.5c-0.6,1.7-1.7,3.7-3.4,5.4c-0.8,0.9-1.9,1.6-3,2.4c-1.2,0.7-2.5,1.3-3.9,1.7c-1.5,0.3-3,0.7-4.6,0.6
					c-0.8,0-1.7,0-2.5-0.1c-0.8-0.2-1.7-0.4-2.5-0.6c-3.3-1.1-6.7-3-9-6.1c-2.4-3.1-3.9-7.1-3.9-11.2c0-4.2,1.4-8.2,3.8-11.3
					c2.3-3.2,5.6-5.2,8.9-6.3c0.8-0.2,1.7-0.5,2.5-0.6c0.8-0.1,1.7-0.1,2.5-0.2c0.4,0,0.8,0,1.2,0l1.2,0.2c0.8,0.1,1.5,0.3,2.3,0.4
					c1.4,0.5,2.8,0.9,4,1.7c1.1,0.8,2.3,1.4,3.1,2.3c3.5,3.5,4.4,7.5,4.1,9.9c-0.3,2.5-1.3,3.6-2.2,3.6c-1,0-2-1-3.1-2.2
					c-1.2-1.2-2.8-2.6-4.8-3.3c-1-0.4-2.1-0.5-3.1-0.5c-0.3,0.1-0.5,0.1-0.8,0.1l-0.4,0l-0.4,0.2c-0.3,0.1-0.5,0.2-0.8,0.2
					c-0.2,0.1-0.5,0.3-0.7,0.4C252.3,265.8,251.2,267.8,251.1,270z"/>
			</g>
			<g>
				<path class="st3" d="M71.9,137.8c-3.1-9.8-2.4-23.5,1.9-32.7c19.9-43.4,81.9-41.2,118.4-26c14.5,6.1,28.5,13.6,42.4,20.8
					c35.3,18.3,90.9,48.2,126.9,15.6c3.9-3.5,6.4-6.7,7.7-9.1c1.3-2.4,1.7-3.9,1-4.6c-0.6-0.6-2.2-0.3-4.6,0.7
					c-2.3,1.1-5.6,2.7-9.7,4.5c-8.2,3.6-20.2,6.8-35.2,4.1c-28.9-5.3-53.8-21.7-78.9-36c-25.1-14.3-50.6-27.7-79.7-31.1
					c-26-3.1-58.1,2.7-78.8,20C60.3,83.2,44.6,116.2,71.9,137.8z"/>
				<path class="st3" d="M462.1,156.7c0-6.4-60.5-11.6-135.1-11.6c-8.4,0-16.7,0.1-24.7,0.2c-1-1.8-2.2-2.8-3.3-2.8
					c-1.2,0-2.3,1-3.4,2.9c-46.7,1-84,4-97.9,7.9c-1.8-6.8-4-10.8-6.3-10.8c-3.2,0-6,7.3-8.1,19.2c-3-3.2-6.8-6.5-11.9-9.1
					c-10.2-5.5-25.3-8.2-40.6-2.7c-7.6,2.7-14.9,7.5-20.9,13.9c-6.1,6.4-10.6,14.8-12.7,24c-0.1,0.6-0.3,1.1-0.4,1.8l-0.3,2.2
					c-0.2,1.4-0.4,2.9-0.5,4.3c0,1.8,0,3.5,0,5.2c0.1,1.7-0.1,3.6,0.3,5.1c0.5,3.3,1.7,6,3.4,8.4c0.8,1.2,1.9,2.2,3,3.2
					c1.2,0.9,2.5,1.7,3.9,2.1c2.6,1.1,5.5,1.2,8.5,0.9c3-0.4,6.2-1.4,9.2-2.6c2-0.8,3.9-1.5,5.8-2.2c1.3-0.5,2.5-0.9,3.7-1.2
					c2.3-0.6,4.1-0.9,5.6-0.9c1.5,0.1,2.7,0.4,4.1,1.1c2.9,1.6,4.4,3.3,5,5.9c0.7,2.6,0.2,6-0.8,8.8c-0.5,1.4-1.1,2.8-1.8,4
					l-0.5,0.9l-0.6,1c-0.4,0.6-0.8,1.3-1.2,1.9c-2.9,4.9-3.9,8.1-2.8,9.2c1.1,1.1,4.3,0,9.2-2.9c0.6-0.4,1.2-0.8,1.9-1.2l1-0.7
					l1.2-0.9c1.6-1.2,3.2-2.8,4.7-4.7c2.9-3.8,5.8-9,6.1-16.2c0.1-3.6-0.6-7.6-2.4-11.3c-1.8-3.8-4.6-6.9-7.8-9.5
					c-3.3-2.6-7.6-4.7-12.2-5.6c-4.6-0.8-9.2-0.6-13.2,0.2c-2,0.4-4,0.9-5.8,1.4l-2.6,0.8l-1,0.3c-0.2,0-0.1,0-0.2,0
					c-0.2,0-0.4-0.1-0.5-0.2c-0.1-0.1-0.1-0.4,0-0.5c0-0.1,0-0.1,0.1-0.2l0.2-1.2l0.1-0.6l0.3-1c2.4-10.7,10.2-19.3,19.1-23.4
					c8.9-4.2,18.7-4.2,26.3-2c7,1.9,12.4,5.4,16.3,8.3c-1,9.8-1.5,21.2-1.5,33.4c0,36.9,5.2,66.9,11.6,66.9
					c6.4,0,11.6-29.9,11.6-66.9c0-19.3-1.4-36.7-3.7-48.9c14.3,3.5,48.2,6.3,90.6,7.3c-0.3,2-0.5,4.1-0.8,6.3
					c-3.7,0.1-8.2,0.7-13.4,1.8c-7.3,1.6-15.9,4.4-25,8.8c-2.3,1.1-4.6,2.4-6.9,3.6l-0.4,0.2l-0.7,0.5l-1.4,0.9l-2.9,1.9
					c-1.9,1.3-3.9,2.6-5.8,4c-3.7,3-7.5,6.1-11.3,9.3c-1.9,1.6-3.9,3.3-5.8,5c-1.9,1.6-3.8,3.3-5.7,4.9c4.5,1.7,9.1,3.4,13.7,5.1
					c6,2.2,11.5,4.4,16.7,6.7c2,1,4.1,1.9,6.1,2.8c1.2,0.6,2.4,1.2,3.6,1.7c4.7,2.3,9.2,4.6,13.3,7c8.2,4.7,15.1,9.4,20.1,13.8
					c3.7,3.1,6.3,6.1,8.3,8.8c2,9.5,4.6,15.2,7.3,15.2c6.4,0,11.6-29.9,11.6-66.9c0-15.6-0.9-29.9-2.5-41.2
					c6.2,0.1,12.5,0.1,18.9,0.1c21.5,0,41.9-0.4,59.9-1.2c-1.9,2.3-3.7,5.7-4.5,10.1c-0.3,1.5-0.4,3.1-0.4,4.8
					c-0.6,0.2-1.1,0.4-1.7,0.6c-3.4,1.2-6.7,1.6-9.8,1.5c-0.4,0-0.8,0-1.2-0.1c-0.3,0-0.3,0-0.5,0c-0.4,0-1.2-0.2-2-0.4
					c-1.7-0.6-3.6-1.6-5.5-2.6c-3.7-2-7-3.8-10.2-3.2c-3.1,0.6-5.4,5.1-3.8,11.7c0.8,3.3,2.5,7.1,6,10.7c1.8,1.8,4,3.6,7,4.9
					c1.4,0.7,3.2,1.2,4.7,1.6c1.4,0.3,2.9,0.5,4.4,0.6c6.1,0.3,11.9-1.7,16-4.7c1-0.7,2-1.5,2.8-2.4c1.9,2.4,4.2,4.6,6.9,6.5
					c-0.6,0.5-1.1,1-1.7,1.6c-1.8,1.8-3.7,4.3-4.9,6.8c-2.5,5-3,10.5-2.1,15.3c0.9,4.8,3.3,9.1,6.4,12.1l0.6,0.6l0.8,0.8l0.9,0.6
					c0.5,0.4,1.1,0.8,1.7,1.2c0.5,0.3,1,0.5,1.5,0.8c7,3.2,17.6,1.2,21.1-6.3c0.2-0.4,0.3-0.8,0.4-1.2c0.2-0.8,0.3-1.7,0.2-2.4
					c-0.2-1.5-0.7-2.4-1.1-3.1c-0.9-1.4-1.8-2.1-2.6-2.8c-0.8-0.6-1.5-1.1-2.2-1.4c-1.4-0.8-2.5-1.2-3.5-1.6
					c-1.9-0.6-3.1-0.8-3.7-0.2c-0.6,0.5-0.4,1.9,0.6,3.7c0.6,1,2.4,2.4,1.9,3.8c-0.5,1.5-2.5,0.8-3.5,0.3c-3.7-2-4.3-8.4-1.9-11.5
					c0.5-0.7,1-1.1,1.8-1.7c0.9-0.7,1.9-1.3,2.9-1.7c4.1-1.9,9.4-1.5,13.2,1.2c1,0.7,1.7,1.4,2.7,2.5c1,1.1,1.9,2.4,2.6,3.7
					c1.5,2.6,2.5,5.6,2.9,8.7c0.8,6.2-1,12.9-5.3,17.9c-1,1.2-2.4,2.6-3.9,3.8c-1.5,1.2-3,2.3-4.5,3.3c-3.2,2-6.5,3.4-10,4.4
					c-7,2-14.3,1.9-20.8,0.3c-6.6-1.7-12.4-4.9-17.1-9c-5-4.4-9-9.3-12.2-14.2c-6.4-9.7-9.2-19.2-11-26c-1.7-6.8-2.6-10.9-4.3-11.1
					c-1.5-0.2-3.7,3.7-4.7,11.6c-0.9,7.7-0.4,19.7,5.5,33.1c2.9,6.7,7.2,13.6,13.1,20c6.1,6.7,14.5,12.6,24.5,15.9
					c9.9,3.3,21.4,4,32.6,1.3c5.6-1.4,11.1-3.6,16.3-6.7c2.6-1.5,5-3.3,7.4-5.2c2.3-1.9,4.5-4,6.7-6.6c8.8-10.2,12.2-24,10.1-36.3
					c-1-6.2-3.3-12-6.6-17c-1.6-2.5-3.5-4.8-5.6-6.9c-1.6-1.7-3.6-3.3-5.7-4.7c1.3-1.1,2.5-2.3,3.5-3.6c5.6-7,7.3-15.3,6.4-21.5
					c-0.9-6.3-3.6-10.7-6.1-12.9c-2.6-2.2-4.7-2.5-6-1.6c-1.3,0.9-1.8,3-2.2,5.4c-0.4,2.5-0.9,5.4-2,8.4
					c-2.2,5.9-8.2,11.3-15.3,10.9c-3.5-0.1-6.8-1.5-9.4-3.7c-2.6-2.2-4.3-5.1-5.3-8.1c-1-3-1.2-6-1.5-8.5c-0.1-0.8-0.1-1.6-0.3-2.3
					C436.1,164.6,462.1,160.9,462.1,156.7z M274.9,220.6c-4.4-3.3-9.2-6.3-14.4-9.2c-1.3-0.7-2.6-1.4-3.9-2.1l-1-0.5l-0.3-0.2
					l-0.3-0.2c-0.1-0.1-0.1-0.1-0.2-0.1c0,0-0.1,0-0.2-0.1c-0.1-0.1-0.1-0.2-0.1-0.5l0.3-0.4l0.2-0.2l0.1-0.1c0,0,0,0,0.1-0.1
					l0.4-0.2c1.9-1.3,3.7-2.6,5.5-3.8c7.3-4.8,14.3-8.8,20.2-12.1c2.5-1.4,4.7-2.6,6.8-3.8c-0.4,7-0.7,14.6-0.7,22.5
					c0,8,0.2,15.6,0.7,22.7C284.3,228.1,279.9,224.2,274.9,220.6z"/>
				<path class="st3" d="M87.7,156.7c0-6.4-6.1-11.6-13.6-11.6c-7.5,0-13.6,5.2-13.6,11.6c0,5.1,3.8,9.4,9.2,10.9
					c-4.2,9.3-7.1,31.3-7.1,57.1c0,34.1,5.2,61.7,11.6,61.7c6.4,0,11.6-27.6,11.6-61.7c0-25.7-2.9-47.8-7.1-57.1
					C83.8,166.1,87.7,161.8,87.7,156.7z"/>
			</g>
		</g>
		<g>
			<path class="st3" d="M486.8,272.4l-22.1-28.3c-1.3,12.1-6,23.7-13.5,33.3L486.8,272.4z"/>
			<path class="st3" d="M459.9,211.1c3.2,7.6,4.8,15.5,5.1,23.3l24.1-26.7l-35.2-7.5C456.2,203.6,458.2,207.2,459.9,211.1z"/>
			<path class="st3" d="M338.2,262.7c-3.2-7.7-4.9-15.6-5.1-23.5l-24.3,27l35.4,7.5C341.9,270.3,339.8,266.6,338.2,262.7z"/>
			<path class="st3" d="M424.8,297.7c-2.1,0.9-4.3,1.7-6.4,2.3l32.1,16.4l-1.9-36C442.3,287.7,434.3,293.7,424.8,297.7z"/>
			<path class="st3" d="M378.6,299.7l17,32l19.2-30.7C402.5,304,390,303.4,378.6,299.7z"/>
			<path class="st3" d="M346.3,276.6l-4.4,36l33.3-14.1C363.9,294.1,353.8,286.6,346.3,276.6z"/>
		</g>
	</g>
	<path class="st4" d="M262.9,452.5c-61.9-25.1-126.5-53.2-198.5-44.2c14.6,18.3,31.7,34.5,51.2,48.2c1,0.7,2.1,1.4,3.2,2.1
		c50,2.4,97.8,19,144.1,33.9c6.9,2.2,13.7,4.4,20.5,6.6c22.2-2.5,43.8-7.9,64.2-16.2C319.6,475.4,291.5,464.1,262.9,452.5z"/>
	<path class="st5" d="M262.9,452.5c28.6,11.6,56.7,22.9,84.7,30.4c15.7-6.3,30.7-14.3,44.8-23.8c-43.3-5.3-85.2-24.1-128.5-43.5
		c-68.9-31-141-66.1-225.4-47.3c7.3,14.2,16,27.6,25.9,40C136.5,399.2,201,427.4,262.9,452.5z"/>
	<path class="st6" d="M118.9,458.6c40.5,27.5,87.8,42.1,137.1,42.1c9.2,0,18.4-0.5,27.4-1.6c-6.8-2.2-13.6-4.4-20.5-6.6
		C216.7,477.6,168.9,461,118.9,458.6z"/>
</g>
<g>
	<rect x="-1249" y="-184" class="st3" width="1200" height="630"/>
</g>
<g>
	<path class="st0" d="M-512.9,253.8c-40.4,0-80.7-14.2-122.4-28.8c-57.1-20.1-115.8-42.3-180.2-28.6c21.5-2.3,43.2-1.3,65.4,3
		c40.9,8,78.9,24.8,114.7,43.1c66.7,34.2,113,46.3,144.6,48.5c14.6-14.5,27.3-31,37.6-49C-473.3,250.4-493.1,253.8-512.9,253.8z"/>
	<path class="st1" d="M-503.1,292.7c-46.7,0-90.5-20.9-136-42.6c-64.1-30.5-131.2-65.3-212.7-42.3c-2.5,1.1-5,2.2-7.5,3.3
		C-827,295.9-745,356-649,356c60.9,0,116.2-24.2,156.7-63.6C-495.9,292.6-499.5,292.7-503.1,292.7z"/>
	<path class="st2" d="M-751.4,182c42.3,3.5,81.9,17.5,120.3,31c64.4,22.7,125.5,44.2,187.3,10.2C-431,195-424,163.8-424,131
		C-424,6.7-524.7-94-649-94C-773.3-94-874,6.7-874,131c0,24.6,4,48.3,11.3,70.5C-827.2,185.1-790.5,178.7-751.4,182z"/>
	<g>
		<g>
			<g>
				<path class="st3" d="M-653.3,143.3c0.1,1,0.3,1.8,0.8,2.6c0.5,0.8,1.2,1.4,2,1.9c1.6,0.9,3.7,1,5.4,0.3c1.7-0.7,3.2-1.8,4.1-3
					c1-1.1,1.8-2,2.7-2c0.4,0,0.8,0.2,1.2,0.7c0.2,0.3,0.4,0.6,0.5,1c0.2,0.4,0.3,0.9,0.3,1.4c0,0.5,0.1,1.2,0,1.8
					c-0.1,0.7-0.3,1.4-0.5,2.2c-0.5,1.5-1.5,3.2-3,4.8c-0.7,0.8-1.7,1.4-2.7,2.1c-1,0.6-2.2,1.1-3.5,1.5c-1.3,0.3-2.6,0.6-4.1,0.5
					c-0.7,0-1.5,0-2.2-0.1c-0.7-0.1-1.5-0.3-2.2-0.5c-2.9-0.9-5.8-2.7-7.9-5.4c-2.1-2.7-3.4-6.2-3.5-9.8c0-3.7,1.3-7.2,3.3-9.9
					c2-2.8,4.9-4.6,7.8-5.5c0.7-0.2,1.5-0.4,2.2-0.6c0.7-0.1,1.5-0.1,2.2-0.1c0.4,0,0.7,0,1.1,0l1,0.1c0.7,0.1,1.3,0.2,2,0.4
					c1.2,0.4,2.5,0.8,3.5,1.5c1,0.7,2,1.2,2.7,2.1c3.1,3.1,3.8,6.6,3.6,8.7c-0.3,2.2-1.1,3.2-2,3.2c-0.9,0-1.7-0.9-2.7-2
					c-1-1.1-2.5-2.3-4.2-2.9c-0.9-0.4-1.8-0.4-2.7-0.4c-0.2,0.1-0.5,0.1-0.7,0.1l-0.3,0l-0.3,0.1c-0.2,0.1-0.4,0.1-0.7,0.2
					c-0.2,0.1-0.4,0.3-0.6,0.3C-652.2,139.6-653.2,141.4-653.3,143.3z"/>
			</g>
			<g>
				<path class="st3" d="M-810.8,27.1c-2.7-8.6-2.1-20.6,1.7-28.8c17.5-38.1,72-36.2,104.1-22.8c12.7,5.3,25.1,11.9,37.3,18.3
					c31,16.1,79.9,42.4,111.5,13.7c3.4-3.1,5.6-5.9,6.8-8c1.2-2.1,1.5-3.5,0.9-4c-0.5-0.6-1.9-0.3-4,0.6c-2.1,0.9-4.9,2.4-8.5,3.9
					c-7.2,3.2-17.8,6-30.9,3.6C-617.5-1-639.4-15.4-661.5-28c-22-12.5-44.5-24.3-70.1-27.3c-22.8-2.7-51,2.3-69.3,17.6
					C-821-20.9-834.8,8.2-810.8,27.1z"/>
				<path class="st3" d="M-467.8,43.7c0-5.6-53.2-10.2-118.8-10.2c-7.4,0-14.7,0.1-21.7,0.2c-0.9-1.6-1.9-2.4-2.9-2.4
					c-1,0-2,0.9-3,2.5c-41.1,0.8-73.8,3.5-86,6.9c-1.6-6-3.5-9.5-5.5-9.5c-2.8,0-5.3,6.5-7.1,16.9c-2.6-2.8-6-5.7-10.4-8
					c-8.9-4.8-22.2-7.2-35.7-2.3c-6.7,2.3-13.1,6.5-18.4,12.2c-5.3,5.7-9.3,13-11.2,21.1c-0.1,0.5-0.3,1-0.4,1.5l-0.3,1.9
					c-0.2,1.3-0.3,2.5-0.4,3.8c0,1.5,0,3.1,0,4.6c0,1.5-0.1,3.1,0.3,4.5c0.4,2.9,1.5,5.3,3,7.4c0.7,1.1,1.7,1.9,2.7,2.8
					c1.1,0.8,2.2,1.5,3.4,1.9c2.3,0.9,4.8,1.1,7.4,0.8c2.7-0.3,5.4-1.3,8.1-2.3c1.7-0.7,3.4-1.3,5.1-2c1.2-0.4,2.2-0.8,3.2-1.1
					c2-0.6,3.6-0.8,4.9-0.8c1.3,0.1,2.4,0.3,3.6,1c2.6,1.4,3.8,2.9,4.4,5.2c0.6,2.3,0.1,5.3-0.7,7.8c-0.5,1.2-1,2.4-1.6,3.5
					l-0.4,0.8l-0.6,0.9c-0.3,0.6-0.7,1.1-1,1.7c-2.5,4.3-3.4,7.1-2.4,8.1c1,1,3.8,0,8-2.5c0.5-0.3,1.1-0.7,1.6-1l0.9-0.6l1-0.8
					c1.4-1.1,2.8-2.5,4.1-4.1c2.6-3.3,5.1-7.9,5.4-14.3c0.1-3.1-0.5-6.7-2.1-9.9c-1.6-3.3-4-6.1-6.9-8.4c-2.9-2.3-6.7-4.2-10.7-4.9
					c-4-0.7-8.1-0.5-11.6,0.1c-1.8,0.3-3.5,0.8-5.1,1.2l-2.3,0.7l-0.8,0.3c-0.1,0-0.1,0-0.1,0c-0.2,0-0.3-0.1-0.4-0.2
					c-0.1-0.1-0.1-0.3,0-0.4c0-0.1,0-0.1,0.1-0.2l0.2-1l0.1-0.5l0.2-0.8c2.1-9.4,9-17,16.8-20.6c7.8-3.7,16.4-3.7,23.1-1.8
					c6.2,1.7,10.9,4.8,14.4,7.3c-0.9,8.6-1.4,18.6-1.4,29.3c0,32.5,4.6,58.8,10.2,58.8c5.6,0,10.2-26.3,10.2-58.8
					c0-17-1.2-32.3-3.2-43c12.6,3.1,42.4,5.5,79.7,6.5c-0.2,1.8-0.5,3.6-0.7,5.5c-3.3,0.1-7.2,0.6-11.7,1.6
					c-6.4,1.4-13.9,3.8-22,7.7c-2,1-4,2.1-6.1,3.2l-0.4,0.2l-0.6,0.4l-1.2,0.8l-2.5,1.7c-1.7,1.2-3.4,2.3-5.1,3.5
					c-3.3,2.7-6.6,5.4-9.9,8.1c-1.7,1.4-3.4,2.9-5.1,4.4c-1.7,1.4-3.3,2.9-5,4.3c4,1.5,8,3,12,4.5c5.3,1.9,10.1,3.8,14.7,5.9
					c1.8,0.8,3.6,1.7,5.3,2.5c1.1,0.5,2.1,1,3.1,1.5c4.1,2,8,4.1,11.7,6.1c7.2,4.1,13.3,8.3,17.7,12.2c3.2,2.8,5.5,5.4,7.3,7.7
					c1.8,8.4,4,13.4,6.5,13.4c5.6,0,10.2-26.3,10.2-58.8c0-13.7-0.8-26.3-2.2-36.2c5.4,0.1,11,0.1,16.6,0.1
					c18.9,0,36.8-0.4,52.7-1.1c-1.7,2-3.3,5-4,8.9c-0.2,1.3-0.4,2.7-0.4,4.2c-0.5,0.2-1,0.4-1.5,0.5c-3,1.1-5.9,1.4-8.6,1.3
					c-0.4,0-0.7,0-1.1-0.1c-0.2,0-0.2,0-0.5,0c-0.4,0-1-0.1-1.7-0.4c-1.5-0.5-3.2-1.4-4.8-2.3c-3.2-1.7-6.2-3.4-8.9-2.8
					c-2.7,0.5-4.7,4.4-3.3,10.3c0.7,2.9,2.2,6.2,5.3,9.4c1.6,1.6,3.5,3.1,6.1,4.3c1.2,0.6,2.8,1.1,4.2,1.4c1.3,0.3,2.6,0.4,3.9,0.5
					c5.4,0.2,10.4-1.5,14.1-4.1c0.9-0.6,1.7-1.3,2.5-2.1c1.7,2.1,3.7,4.1,6.1,5.7c-0.5,0.4-1,0.9-1.5,1.4c-1.6,1.6-3.3,3.8-4.3,5.9
					c-2.2,4.4-2.7,9.2-1.8,13.5c0.8,4.3,2.9,8,5.6,10.6l0.5,0.5l0.7,0.7l0.8,0.6c0.5,0.4,1,0.7,1.5,1c0.5,0.3,0.9,0.5,1.4,0.7
					c6.1,2.8,15.5,1.1,18.5-5.6c0.1-0.3,0.3-0.7,0.4-1c0.2-0.7,0.2-1.5,0.2-2.1c-0.1-1.3-0.6-2.1-1-2.8c-0.8-1.2-1.6-1.9-2.3-2.4
					c-0.7-0.5-1.4-0.9-2-1.3c-1.2-0.7-2.2-1.1-3.1-1.4c-1.7-0.6-2.7-0.7-3.2-0.2c-0.5,0.5-0.3,1.7,0.5,3.3c0.5,0.9,2.1,2.1,1.7,3.3
					c-0.5,1.3-2.2,0.7-3.1,0.2c-3.2-1.8-3.8-7.4-1.6-10.1c0.5-0.6,0.8-0.9,1.6-1.5c0.8-0.6,1.6-1.1,2.6-1.5
					c3.6-1.6,8.2-1.3,11.6,1.1c0.9,0.6,1.5,1.2,2.4,2.2c0.9,1,1.6,2.1,2.3,3.2c1.3,2.3,2.2,4.9,2.6,7.6c0.7,5.5-0.9,11.4-4.6,15.7
					c-0.9,1-2.1,2.3-3.4,3.3c-1.3,1-2.6,2-4,2.9c-2.8,1.7-5.7,3-8.8,3.9c-6.1,1.7-12.5,1.7-18.3,0.2c-5.8-1.5-10.9-4.3-15-7.9
					c-4.4-3.9-8-8.2-10.7-12.4c-5.6-8.6-8.1-16.9-9.7-22.8c-1.5-5.9-2.3-9.6-3.7-9.7c-1.3-0.2-3.3,3.3-4.2,10.2
					c-0.8,6.8-0.3,17.3,4.9,29.1c2.6,5.9,6.4,11.9,11.5,17.6c5.4,5.9,12.8,11.1,21.6,14c8.7,2.9,18.8,3.5,28.7,1.1
					c4.9-1.2,9.8-3.2,14.3-5.9c2.3-1.3,4.4-2.9,6.5-4.6c2-1.7,4-3.5,5.9-5.8c7.7-8.9,10.7-21.1,8.8-31.9c-0.9-5.4-2.9-10.6-5.8-15
					c-1.4-2.2-3.1-4.2-4.9-6c-1.4-1.5-3.2-2.9-5-4.1c1.1-1,2.2-2.1,3.1-3.2c5-6.1,6.4-13.4,5.7-18.9c-0.8-5.5-3.2-9.4-5.4-11.3
					c-2.3-1.9-4.2-2.2-5.3-1.4c-1.2,0.8-1.6,2.6-1.9,4.7c-0.3,2.2-0.8,4.8-1.8,7.4c-1.9,5.2-7.2,9.9-13.5,9.6
					c-3.1-0.1-6-1.3-8.3-3.2c-2.3-1.9-3.8-4.5-4.7-7.1c-0.9-2.7-1-5.3-1.3-7.5c-0.1-0.7-0.1-1.4-0.2-2
					C-490.8,50.6-467.8,47.4-467.8,43.7z M-632.4,99.9c-3.9-2.9-8.1-5.6-12.6-8.1c-1.1-0.6-2.3-1.3-3.4-1.9l-0.9-0.5l-0.3-0.1
					l-0.3-0.2c0-0.1-0.1-0.1-0.1-0.1c0,0-0.1,0-0.2-0.1c-0.1-0.1-0.1-0.2-0.1-0.4l0.3-0.4l0.2-0.2l0.1-0.1c0,0,0,0,0.1-0.1l0.3-0.2
					c1.7-1.1,3.2-2.3,4.9-3.3c6.4-4.3,12.6-7.7,17.8-10.6c2.2-1.2,4.2-2.3,6-3.3c-0.4,6.2-0.6,12.8-0.6,19.7c0,7,0.2,13.7,0.6,20
					C-624.1,106.5-628,103.1-632.4,99.9z"/>
				<path class="st3" d="M-796.9,43.7c0-5.6-5.4-10.2-12-10.2c-6.6,0-12,4.6-12,10.2c0,4.4,3.4,8.2,8.1,9.6
					c-3.7,8.2-6.3,27.5-6.3,50.2c0,30,4.6,54.3,10.2,54.3c5.6,0,10.2-24.3,10.2-54.3c0-22.6-2.6-42-6.3-50.1
					C-800.3,52-796.9,48.2-796.9,43.7z"/>
			</g>
		</g>
		<g>
			<path class="st3" d="M-446.1,145.5l-19.4-24.9c-1.2,10.7-5.3,20.8-11.9,29.3L-446.1,145.5z"/>
			<path class="st3" d="M-469.8,91.5c2.8,6.7,4.3,13.6,4.5,20.5l21.2-23.5l-30.9-6.6C-473,84.9-471.3,88.1-469.8,91.5z"/>
			<path class="st3" d="M-576.8,136.9c-2.9-6.7-4.3-13.7-4.5-20.6l-21.3,23.7l31.2,6.6C-573.5,143.5-575.3,140.3-576.8,136.9z"/>
			<path class="st3" d="M-500.6,167.7c-1.9,0.8-3.7,1.5-5.6,2l28.2,14.4l-1.6-31.7C-485.3,158.8-492.3,164.1-500.6,167.7z"/>
			<path class="st3" d="M-541.3,169.4l14.9,28.1l16.9-27C-520.2,173.2-531.2,172.7-541.3,169.4z"/>
			<path class="st3" d="M-569.7,149.1l-3.9,31.7l29.3-12.4C-554.2,164.5-563,157.9-569.7,149.1z"/>
		</g>
	</g>
	<path class="st4" d="M-642.9,303.7c-54.4-22-111.2-46.8-174.4-38.9c12.8,16.1,27.9,30.4,45,42.4c0.9,0.6,1.9,1.3,2.8,1.9
		c44,2.1,85.9,16.7,126.6,29.8c6,1.9,12,3.9,18,5.8c19.5-2.2,38.5-7,56.4-14.2C-593.1,323.8-617.8,313.9-642.9,303.7z"/>
	<path class="st5" d="M-642.9,303.7c25.1,10.2,49.8,20.1,74.5,26.7c13.8-5.6,26.9-12.6,39.4-20.9c-38-4.6-74.9-21.2-112.9-38.3
		c-60.6-27.2-123.9-58.1-198.1-41.6c6.4,12.5,14.1,24.2,22.8,35.2C-754.1,256.9-697.3,281.7-642.9,303.7z"/>
	<path class="st6" d="M-769.5,309.1c35.6,24.2,77.2,37,120.5,37c8.1,0,16.2-0.5,24.1-1.4c-6-1.9-12-3.8-18-5.8
		C-683.6,325.7-725.6,311.2-769.5,309.1z"/>
</g>
</svg>
